              <svg
                width="36"
                height="36"
                fill="none"
                xmlns="http://www.w3.org/2000/svg"
                class=""
                viewBox="0 0 36 36"
              >
                <path
                  fill-rule="evenodd"
                  clip-rule="evenodd"
                  d="M10.559 10.14c-2.612 2.392-3.566 5.145-3.566 8.376C6.993 21.817 8.836 29 19.215 29c1.505 0 2.974-.21 4.405-.654 1.57-.487 2.783-1.277 3.798-2.173l.15-.133c.29-.258.606-.537.86-.898.426-.523.71-.905.741-1.198.032-.293.008-.551-.189-.74-.197-.19-.517-.267-.876-.123-.322.129-.663.434-1.02.753l-.125.11c-2.434 2.134-5.158 3.007-7.744 3.007-8.219 0-10.095-5.489-10.095-8.435 0-2.947.856-4.956 2.606-6.798 1.75-1.843 4.62-2.723 7.25-2.723 5.681 0 7.745 4.598 7.745 6.964 0 3.145-1.802 4.54-2.591 5.076-.592.402-1.213.517-1.549.517h-.01c-.365 0-.89 0-1.03-.517-.09-.34.08-1.06.263-1.828.097-.405.197-.824.262-1.207l.94-4.722c.014-.092.021-.177.021-.254 0-.72-.146-1.1-1.103-1.1-.46 0-.77.074-.931.222-.161.148-.274.44-.34.878-.365-.487-.734-.815-1.107-.984-.343-.155-.833-.233-1.468-.233-1.636 0-3.053.783-4.252 2.349-1.103 1.439-1.654 2.977-1.654 4.613 0 1.277.358 2.398 1.074 3.365.796 1.065 1.833 1.597 3.112 1.597 1.095 0 2.147-.366 3.155-1.1.453.74 1.23 1.177 2.323 1.111 5.654-.339 6.962-5.275 6.896-7.783C28.647 12.75 26.288 7 18.976 7c-3.382 0-5.806.747-8.417 3.14zm3.702 9.173c-.068-1.127.093-1.976.814-3.235 1.171-2.046 2.576-2.537 3.502-2.428.898.107 1.128.5 1.27.743l.014.023c.142.24.367.648.367 1.225 0 .938-.292 1.839-.922 3.398-.732 1.84-1.483 2.19-2.4 2.4-1.512.348-2.576-.999-2.645-2.126z"
                  fill="currentColor"
                  fill-opacity="0.9"
                ></path>
              </svg>