<svg xmlns="http://www.w3.org/2000/svg" viewBox="0 0 90 90" width="90" height="90" preserveAspectRatio="xMidYMid meet" style="width: 100%; height: 100%; transform: translate3d(0px, 0px, 0px); content-visibility: visible;"><defs><clipPath id="__lottie_element_192"><rect width="90" height="90" x="0" y="0"></rect></clipPath></defs><g clip-path="url(#__lottie_element_192)"><g transform="matrix(1,0,0,1,45,45)" opacity="1" style="display: block;"><g opacity="1" transform="matrix(1,0,0,1,0,0)"><path fill="rgb(254,44,85)" fill-opacity="1" d=" M0,-36 C19.881999969482422,-36 36,-19.881999969482422 36,0 C36,19.881999969482422 19.881999969482422,36 0,36 C-19.881999969482422,36 -36,19.881999969482422 -36,0 C-36,-19.881999969482422 -19.881999969482422,-36 0,-36z"></path></g></g><g transform="matrix(1,0,0,1,45,45)" opacity="1" style="display: block;"><g opacity="1" transform="matrix(1,0,0,1,0,0)"><path stroke-linecap="round" stroke-linejoin="round" fill-opacity="0" stroke="rgb(255,255,255)" stroke-opacity="1" stroke-width="6" d=" M-13.5,0 C-13.5,0 13.562000274658203,0 13.562000274658203,0 C13.562000274658203,0 -13.5,0 -13.5,0z"></path></g><g opacity="1" transform="matrix(0,1,-1,0,0,0)"><path stroke-linecap="round" stroke-linejoin="round" fill-opacity="0" stroke="rgb(255,255,255)" stroke-opacity="1" stroke-width="6" d=" M-13.5,0 C-13.5,0 13.562000274658203,0 13.562000274658203,0 C13.562000274658203,0 -13.5,0 -13.5,0z"></path></g></g></g></svg>