<svg width="11" height="12" viewBox="0 0.5 11.5 11" fill="none" xmlns="http://www.w3.org/2000/svg" class="lG5TmBA_"><path fill-rule="evenodd" clip-rule="evenodd" d="M.6 5.684C.6 2.874 3.02.6 6 .6c2.982 0 5.4 2.273 5.4 5.084 0 2.81-2.418 5.084-5.4 5.084 0 0-1.308.076-1.84.2-.35.076-.944.276-1.309.399a.42.42 0 01-.562-.292c-.054-.225-.034-.756-.018-1.166.011-.289.02-.518-.001-.537C1.249 8.44.6 7.132.6 5.684zm6.814 1.095a.684.684 0 11.394 1.31l-.004.001-.01.003-.032.009a7.48 7.48 0 01-.503.118c-.317.063-.756.13-1.209.13-.453 0-.892-.067-1.208-.13a7.485 7.485 0 01-.504-.118l-.032-.01-.01-.002h-.003l-.002-.002a.683.683 0 01-.462-.85.69.69 0 01.858-.46l.003.002.02.005.085.023a6.1 6.1 0 00.317.071c.269.054.61.103.938.103.328 0 .67-.05.938-.103a6.1 6.1 0 00.402-.094l.02-.005.004-.001z" fill="#2F3035" fill-opacity="0.9"></path></svg>