<svg width="16" height="16" fill="none" xmlns="http://www.w3.org/2000/svg" class="" viewBox="0 0 16 16"><path fill-rule="evenodd" clip-rule="evenodd" d="M9.103 2A1 1 0 0 0 8.1 1h-.2a1 1 0 0 0-.997 1v1.995H3a1 1 0 0 0-1 1v.5a1 1 0 0 0 1 1h10a1 1 0 0 0 1-1v-.5a1 1 0 0 0-1-1H7.94l1.163-.003V2zm3.854 4.962l-9.893.006s.054 2.13-.054 3.496c-.065.824-.234 1.927-.357 2.673a.71.71 0 0 0 .697.827h1.384c.16-.417.34-.922.44-1.322.1-.401.185-.952.246-1.416a27.24 27.24 0 0 0 .086-.748l.005-.046v-.011l.001-.003a.5.5 0 0 1 .996.093l-.498-.047.498.047v.005l-.002.013-.005.049a23.283 23.283 0 0 1-.09.777c-.06.47-.152 1.069-.267 1.53-.086.34-.215.728-.342 1.08h1.052l.007-.02c.16-.418.34-.925.442-1.326.1-.402.185-.952.246-1.416a27.06 27.06 0 0 0 .086-.748l.005-.046v-.011l.001-.003a.5.5 0 0 1 .996.093l-.498-.047.498.047v.005l-.002.013-.005.049a23.186 23.186 0 0 1-.09.777c-.06.47-.152 1.069-.268 1.53-.087.347-.22.745-.35 1.102h4.748a.71.71 0 0 0 .697-.827c-.124-.746-.292-1.848-.357-2.673-.108-1.367-.053-3.502-.053-3.502z" fill="currentColor" fill-opacity="1"></path></svg>