<svg width="15" height="12.16" fill="none" xmlns="http://www.w3.org/2000/svg" class="F6D9A5IA" viewBox="0 -0.5 18.83 12.91"><path fill-rule="evenodd" clip-rule="evenodd" d="M2.579 1a1 1 0 011-1h12a1 1 0 011 1v9.036a.5.5 0 01-.415.493 2 2 0 01.861.24l1.863 1.013c.182.1.111.376-.096.376H.365c-.207 0-.278-.277-.096-.376l1.863-1.013a2 2 0 01.861-.24.5.5 0 01-.414-.493V1zm6.3 2.6a.6.6 0 011.2 0V6H11.9a.3.3 0 01.222.502L9.8 9.055a.3.3 0 01-.444 0L7.035 6.502A.3.3 0 017.257 6H8.88V3.6z" fill="#2F3035" fill-opacity="0.9"></path></svg>