        <svg
          width="74"
          height="70"
          fill="none"
          xmlns="http://www.w3.org/2000/svg"
          class="collect-item-content-svg"
        >
          <path
            d="M0 11C0 4.925 4.925 0 11 0h18.444a11 11 0 017.779 3.222l3.556 3.556A11 11 0 0048.557 10H69c6.075 0 11 4.925 11 11v40c0 6.075-4.925 11-11 11H11C4.925 72 0 67.075 0 61V11zm38.041 13.383l-3.662 9.795a.09.09 0 01-.081.059l-10.448.456c-1.932.085-2.724 2.522-1.21 3.726l8.183 6.51c.029.023.041.06.031.095L28.06 55.102c-.517 1.864 1.556 3.37 3.169 2.302l8.72-5.772c.031-.02.07-.02.101 0l8.72 5.772c1.613 1.067 3.686-.439 3.17-2.302l-2.795-10.078a.09.09 0 01.031-.095l8.184-6.51c1.514-1.204.722-3.641-1.21-3.726l-10.448-.456a.09.09 0 01-.081-.06l-3.663-9.794c-.677-1.812-3.24-1.812-3.917 0z"
            fill="currentColor"
          ></path>
          <defs>
            <linearGradient
              id="subtract_svg__paint0_linear_911_224"
              x1="40"
              y1="0"
              x2="40"
              y2="72"
              gradientUnits="userSpaceOnUse"
            >
              <stop stop-color="#E9ECF8"></stop>
              <stop offset="1" stop-color="#E0E4F2" stop-opacity="0.12"></stop>
            </linearGradient>
          </defs>
        </svg>