<svg width="12" height="10.9" fill="none" xmlns="http://www.w3.org/2000/svg" class="lG5TmBA_" viewBox="0 0 12 10.9"><path d="M10.556 1.731h.694c.199 0 .39.082.53.228.141.147.22.345.22.552V6.41a.796.796 0 01-.22.551.736.736 0 01-.53.228H9.885L6.746 2.476l-.365-.538-2.233 1.073a.724.724 0 01-.462.056c-.682-.142-.91-.39-.686-.744C3.217 1.98 4.14 1.29 5.772.254a.846.846 0 01.132-.07C6.59-.15 7.371-.03 8.25.549c.726.478 1.5.875 2.306 1.183zM.512 7.15a.753.753 0 01-.37-.284A.8.8 0 010 6.41v-3.9c0-.206.079-.404.22-.55a.736.736 0 01.53-.229h1.73l-.003.003a1.01 1.01 0 00-.243.352 1.045 1.045 0 00.022.846c.062.13.151.246.26.338.27.227.593.377.936.436.342.06.694.026 1.02-.098l1.687-.64 1.184 1.778c.036.037.069.077.097.12l2.074 3.116a.797.797 0 01.11.638.792.792 0 01-.144.297.756.756 0 01-.25.207l-3.313 1.704a.721.721 0 01-.48.066l.123-.13c.278-.291.433-.685.433-1.096 0-.41-.155-.804-.433-1.096l-2.4-2.525a1.124 1.124 0 00-.366-.257 1.088 1.088 0 00-1.234.257L.512 7.15zm2.352-.335l2.128 2.239a.81.81 0 01.191.748l-.107.422a.608.608 0 01-.134.254.558.558 0 01-.767.076L1.438 8.46a.771.771 0 01-.211-.249.803.803 0 01.122-.927l.447-.47a.749.749 0 01.534-.232.725.725 0 01.533.231v.001z" fill="#2F3035" fill-opacity="0.9"></path></svg>