      <svg width="24" height="24" fill="none" xmlns="http://www.w3.org/2000/svg">
                <mask id="theme-dark_svg__a" fill="#fff">
                  <path fill-rule="evenodd" clip-rule="evenodd"
                    d="M6.53 14.247A6.004 6.004 0 0012.101 6a6.004 6.004 0 11-5.889 8.239c.106.005.211.008.318.008z">
                  </path>
                </mask>
                <path
                  d="M12.101 6l.063-1.198-1.879-.098.703 1.745L12.101 6zm-5.889 8.239l.063-1.198-1.879-.098.703 1.745 1.113-.449zm5.122-5.996a4.804 4.804 0 01-4.804 4.804v2.4a7.204 7.204 0 007.204-7.204h-2.4zm-.346-1.794c.223.552.346 1.157.346 1.794h2.4c0-.95-.184-1.858-.52-2.692l-2.226.898zm1.05.75a4.804 4.804 0 014.55 4.797h2.4a7.204 7.204 0 00-6.824-7.194l-.125 2.396zm4.55 4.797a4.804 4.804 0 01-4.805 4.804v2.4a7.204 7.204 0 007.205-7.204h-2.4zM11.783 16.8a4.806 4.806 0 01-4.458-3.01l-2.226.898a7.206 7.206 0 006.684 4.512v-2.4zM6.53 13.047c-.086 0-.17-.002-.255-.006l-.125 2.396c.126.007.253.01.38.01v-2.4z"
                  fill="currentColor" mask="url(#theme-dark_svg__a)"></path>
              </svg>