<svg width="16" height="16" fill="none" xmlns="http://www.w3.org/2000/svg"  viewBox="0 0 16 16"><path fill-rule="evenodd" clip-rule="evenodd" d="M6.5 3a.5.5 0 0 0-1 0v.5H4A1.5 1.5 0 0 0 2.5 5v7.5A1.5 1.5 0 0 0 4 14h8a1.5 1.5 0 0 0 1.5-1.5V5A1.5 1.5 0 0 0 12 3.5h-1.5V3a.5.5 0 0 0-1 0v.5h-3V3zm-1 1.5V5a.5.5 0 0 0 1 0v-.5h3V5a.5.5 0 0 0 1 0v-.5H12a.5.5 0 0 1 .5.5v1a.5.5 0 0 1-.5.5H4a.5.5 0 0 1-.5-.5V5a.5.5 0 0 1 .5-.5h1.5zm5.354 3.646a.5.5 0 0 1 0 .708l-3 3a.5.5 0 0 1-.708 0l-1.5-1.5a.5.5 0 0 1 .708-.708L7.5 10.793l2.646-2.647a.5.5 0 0 1 .708 0z" fill="currentColor"></path></svg>