<svg xmlns="http://www.w3.org/2000/svg" viewBox="0 0 72 72" width="72" height="72" preserveAspectRatio="xMidYMid meet" style="width: 100%; height: 100%; transform: translate3d(0px, 0px, 0px); content-visibility: visible;"><defs><clipPath id="__lottie_element_1535"><rect width="72" height="72" x="0" y="0"></rect></clipPath><clipPath id="__lottie_element_1537"><path d="M0,0 L72,0 L72,72 L0,72z"></path></clipPath></defs><g clip-path="url(#__lottie_element_1535)"><g clip-path="url(#__lottie_element_1537)" transform="matrix(1,0,0,1,0,0)" opacity="1" style="display: block;"><g transform="matrix(2,0,0,2,22,19.99900245666504)" opacity="1" style="display: block;"><g opacity="1" transform="matrix(1,0,0,1,0,0)"><path stroke-linecap="butt" stroke-linejoin="miter" fill-opacity="0" stroke-miterlimit="4" stroke="rgb(47,48,53)" stroke-opacity="1" stroke-width="1.7" d=" M4.75600004196167,16.69099998474121 C2.6410000324249268,16.69099998474121 1,16.69099998474121 1,16.69099998474121 C0.4480000138282776,16.69099998474121 0,16.243000030517578 0,15.690999984741211 C0,15.690999984741211 0,6.488999843597412 0,6.488999843597412 C0,6.488999843597412 0,6.488999843597412 0,6.488999843597412 C0,6.195000171661377 0.12999999523162842,5.914999961853027 0.35499998927116394,5.724999904632568 C0.35499998927116394,5.724999904632568 6.855000019073486,0.23600000143051147 6.855000019073486,0.23600000143051147 C7.228000164031982,-0.07900000363588333 7.771999835968018,-0.07900000363588333 8.145000457763672,0.23600000143051147 C8.145000457763672,0.23600000143051147 14.645000457763672,5.724999904632568 14.645000457763672,5.724999904632568 C14.869999885559082,5.914999961853027 15,6.195000171661377 15,6.488999843597412 C15,6.488999843597412 15,15.690999984741211 15,15.690999984741211 C15,16.243000030517578 14.552000045776367,16.69099998474121 14,16.69099998474121 C14,16.69099998474121 10.368000030517578,16.69099998474121 6.943999767303467,16.69099998474121"></path></g></g><g transform="matrix(-0.00035652186488732696,1.100000023841858,-1.9999998807907104,-0.0006482215831056237,38.694087982177734,39.5655517578125)" opacity="1" style="display: block;"><g opacity="1" transform="matrix(1,0,0,1,0,0)"><path stroke-linecap="butt" stroke-linejoin="miter" fill-opacity="0" stroke-miterlimit="4" stroke="rgb(47,48,53)" stroke-opacity="1" stroke-width="1.7" d=" M11.71399974822998,0.8240000009536743 C11.71399974822998,0.8240000009536743 -0.004999999888241291,0.8240000009536743 -0.004999999888241291,0.8240000009536743"></path></g></g></g></g></svg>