<svg width="91" height="34" fill="none" xmlns="http://www.w3.org/2000/svg"><g clip-path="url(#a)"><path d="M11.64 13.434v-1.31c-.456-.055-.911-.092-1.385-.092-5.647 0-10.256 4.588-10.256 10.25 0 3.46 1.73 6.537 4.372 8.394a10.177 10.177 0 0 1-2.75-6.973c.018-5.59 4.48-10.141 10.018-10.269Z" fill="#00FAF0"/><path d="M11.877 28.345a4.675 4.675 0 0 0 4.663-4.497V1.545h4.08a7.226 7.226 0 0 1-.127-1.42h-5.574v22.303a4.675 4.675 0 0 1-4.664 4.497c-.783 0-1.53-.2-2.167-.546a4.644 4.644 0 0 0 3.789 1.966ZM28.251 9.12V7.88a7.683 7.683 0 0 1-4.226-1.256 7.916 7.916 0 0 0 4.226 2.494Z" fill="#00FAF0"/><path d="M24.045 6.625a7.721 7.721 0 0 1-1.913-5.08h-1.494a7.836 7.836 0 0 0 3.407 5.08ZM10.255 17.585a4.679 4.679 0 0 0-4.682 4.679c0 1.802 1.02 3.35 2.514 4.133a4.707 4.707 0 0 1-.892-2.731 4.679 4.679 0 0 1 4.681-4.68c.474 0 .948.073 1.385.219v-5.68c-.456-.055-.911-.091-1.385-.091h-.236v4.37a4.326 4.326 0 0 0-1.385-.22Z" fill="#FF0050"/><path d="M28.252 9.12v4.332c-2.896 0-5.556-.928-7.742-2.494v11.306c0 5.644-4.59 10.25-10.255 10.25-2.186 0-4.208-.691-5.866-1.857 1.876 2.003 4.536 3.277 7.505 3.277 5.647 0 10.256-4.587 10.256-10.25V12.378a13.268 13.268 0 0 0 7.742 2.494v-5.57a9.616 9.616 0 0 1-1.64-.183Z" fill="#FF0050"/><path d="M20.51 22.265V10.959a13.268 13.268 0 0 0 7.741 2.494V9.12a7.85 7.85 0 0 1-4.226-2.494 7.66 7.66 0 0 1-3.388-5.08h-4.08v22.303a4.675 4.675 0 0 1-4.664 4.497 4.625 4.625 0 0 1-3.789-1.948 4.678 4.678 0 0 1-2.514-4.133 4.679 4.679 0 0 1 4.682-4.68c.473 0 .947.074 1.384.22v-4.37c-5.538.127-10 4.679-10 10.232 0 2.694 1.038 5.152 2.75 6.973a10.211 10.211 0 0 0 5.866 1.857c5.629.018 10.237-4.588 10.237-10.232ZM41.947 6.103H39.3V9.99h-3.076v2.647h3.076v5.396l-3.076.448v2.79l3.076-.448v4.621a.678.678 0 0 1-.672.672h-2.22v2.647h3.32c1.222 0 2.22-.997 2.22-2.219v-6.108l2.69-.408V17.24l-2.69.407V12.66h2.69v-2.647h-2.69v-3.91ZM56.945 6.103h-2.628v13.825l-8.72.753v2.79l8.72-.733v6.21h2.628v-6.455l2.69-.244v-2.79l-2.69.245V6.103Z" fill="#111"/><path d="m52.951 9.178-6.254-1.12v2.81l6.254 1.1v-2.79ZM52.951 14.98l-6.254-1.12v2.81l6.254 1.12v-2.81ZM81.124 13.82l.407-2.158h-2.79l-.428 2.158h-7.294l-.326-2.158h-2.811l.346 2.158h-5.296v2.586h23.366V13.82h-5.174ZM85.565 7.935h-8.862l-.448-1.832h-3.443l.448 1.832h-9.595v2.566h21.9V7.935ZM81.96 18.3H67.27c-1.222 0-2.22.998-2.22 2.22v6.047c0 1.222.998 2.22 2.22 2.22h14.688c1.222 0 2.22-.998 2.22-2.22V20.52c0-1.221-.977-2.22-2.22-2.22Zm-13.752 2.403h12.835c.366 0 .672.306.672.672v1.08H67.556v-1.08a.636.636 0 0 1 .652-.672Zm12.835 5.701H68.208a.678.678 0 0 1-.672-.671v-1.1h14.158v1.1a.66.66 0 0 1-.651.671Z" fill="#111"/></g><defs><clipPath id="a"><path fill="#fff" transform="translate(0 .125)" d="M0 0h90.667v33.875H0z"/></clipPath></defs></svg>