              <svg
                width="36"
                height="36"
                fill="none"
                xmlns="http://www.w3.org/2000/svg"
                class=""
                viewBox="0 0 36 36"
              >
                <path
                  fill-rule="evenodd"
                  clip-rule="evenodd"
                  d="M27 18a9 9 0 11-18 0 9 9 0 0118 0zm-9 11c6.075 0 11-4.925 11-11S24.075 7 18 7 7 11.925 7 18s4.925 11 11 11zm-2-13.5c0 1.105-.672 2-1.5 2s-1.5-.895-1.5-2 .672-2 1.5-2 1.5.895 1.5 2zm5.5 2c.828 0 1.5-.895 1.5-2s-.672-2-1.5-2-1.5.895-1.5 2 .672 2 1.5 2zM18 22.03c-1.657 0-3-.96-3-2.143 0-1.183 6-1.183 6 0 0 1.184-1.343 2.143-3 2.143z"
                  fill="currentColor"
                  fill-opacity="0.9"
                ></path>
              </svg>