<svg viewBox="0 0 80 80" fill="none" xmlns="http://www.w3.org/2000/svg" width="1em" height="1em" focusable="false"><path fill-rule="evenodd" clip-rule="evenodd" d="M11.3538 24.6718L14.6565 18.2111C15.3508 16.853 16.7367 16 18.2491 16H61.7509C63.2633 16 64.6492 16.853 65.3435 18.2111L68.6462 24.6718C69.7435 26.8183 70.189 29.2446 69.9268 31.6461L66.881 59.5414C66.5418 62.6484 63.9444 65 60.8519 65H19.1481C16.0556 65 13.4582 62.6484 13.119 59.5413L10.0732 31.6461C9.81101 29.2446 10.2565 26.8183 11.3538 24.6718ZM16.3125 24.8978C15.555 24.8978 15.0666 24.0869 15.4143 23.4068L17.351 19.6184C17.5245 19.2789 17.871 19.0656 18.2491 19.0656H61.7509C62.129 19.0656 62.4755 19.2789 62.649 19.6184L64.5857 23.4068C64.9334 24.0869 64.445 24.8978 63.6875 24.8978H16.3125ZM44.5798 36.2135C44.5798 38.2011 46.2236 39.8179 48.2445 39.8179C48.5423 39.8179 48.8358 39.7794 49.1206 39.7105V42.7917C48.8314 42.829 48.5387 42.8485 48.2445 42.8485C46.8941 42.8485 45.6359 42.4548 44.5798 41.7798V47.9448C44.56 51.0564 41.9929 53.5812 38.8128 53.5812C35.6326 53.5812 33.0454 51.0369 33.0454 47.9091C33.0454 44.7812 35.6326 42.2365 38.8128 42.2362C39.0766 42.2362 39.3381 42.2548 39.596 42.2894V45.3811C39.344 45.3056 39.0814 45.2671 38.8128 45.2671C37.3315 45.2671 36.1267 46.4525 36.1267 47.9091C36.1267 49.3656 37.3319 50.5506 38.8128 50.5506C40.2937 50.5506 41.4985 49.3656 41.4985 47.9091V35.9789H44.5798V36.2135Z" fill="currentColor" fill-opacity="0.15"></path></svg>