<svg width="24" height="24" fill="none" xmlns="http://www.w3.org/2000/svg" class="lG5TmBA_" viewBox="0.5 0.5 13 13"><path d="M.778 12.185c0-.572.418-1.037.933-1.037H12.29c.515 0 .933.465.933 1.037 0 .573-.418 1.037-.933 1.037H1.71c-.515 0-.933-.464-.933-1.037zM.778 7c0-.573.418-1.037.933-1.037H12.29c.515 0 .933.464.933 1.037s-.418 1.037-.933 1.037H1.71C1.196 8.037.778 7.573.778 7zM.778 1.815c0-.573.418-1.037.933-1.037H12.29c.515 0 .933.464.933 1.037s-.418 1.037-.933 1.037H1.71c-.515 0-.933-.464-.933-1.037z" fill="currentColor" fill-opacity="0.9"></path></svg>