        
          <svg width="24" height="24" fill="none" xmlns="http://www.w3.org/2000/svg">
            <path fill-rule="evenodd" clip-rule="evenodd"
              d="M12 18.5a6.5 6.5 0 100-13 6.5 6.5 0 000 13zm0 1.5a8 8 0 100-16 8 8 0 000 16zm.435-11.994c-1.44-.167-2.208.368-2.617.874-.127.154-.31.465-.372.66l-.003.01c-.028.079-.203.568-.029.746.144.148.35.155.516.16l.098.004c.146.011.537-.033.592-.237.076-.285.249-.746.68-1.017.506-.317 1.138-.164 1.477.037.446.263.552.87.33 1.195-.116.17-.338.354-.595.566-.248.206-.529.439-.777.71-.49.538-.479 1.247-.45 1.704h1.266l-.003-.083c-.005-.134-.014-.341.043-.557.074-.28.265-.443.593-.72.176-.15.39-.33.646-.581.73-.713.732-1.074.734-1.451l.001-.118c.01-.379-.411-1.703-2.13-1.902zm-.45 8.107a.882.882 0 100-1.764.882.882 0 000 1.764z"
              fill="currentColor"></path>
          </svg>