<svg xmlns="http://www.w3.org/2000/svg" viewBox="0 0 99 99" width="99" height="99" preserveAspectRatio="xMidYMid meet" style="width: 100%; height: 100%; transform: translate3d(0px, 0px, 0px); content-visibility: visible;"><defs><clipPath id="__lottie_element_182"><rect width="99" height="99" x="0" y="0"></rect></clipPath></defs><g clip-path="url(#__lottie_element_182)"><g transform="matrix(0.6400325298309326,0,0,0.6400325298309326,49.20100021362305,52.64942169189453)" opacity="1" style="display: block;"><g opacity="1" transform="matrix(3,0,0,3,0,0)"><path fill="currentColor" fill-opacity="1" d=" M0.8149999976158142,4.76200008392334 C0.8149999976158142,4.76200008392334 0.8149999976158142,-4.929999828338623 0.8149999976158142,-4.929999828338623 C0.8149999976158142,-4.929999828338623 -5.2179999351501465,-5.49399995803833 -9.244999885559082,-1.1749999523162842 C-13.272000312805176,3.1440000534057617 -13.517000198364258,11.817000389099121 -10.842000007629395,7.74399995803833 C-8.062000274658203,3.510999917984009 0.8149999976158142,4.76200008392334 0.8149999976158142,4.76200008392334z M10.514378547668457,2.995445728302002 C12.168766021728516,1.5337685346603394 12.21668815612793,-0.8918964862823486 10.621323585510254,-2.4177768230438232 C10.621323585510254,-2.4177768230438232 3.705676317214966,-9.032222747802734 3.705676317214966,-9.032222747802734 C2.110311985015869,-10.558103561401367 0.8149999976158142,-10.263825416564941 0.8149999976158142,-8.375499725341797 C0.8149999976158142,-8.375499725341797 0.8149999976158142,-4.953999996185303 0.8149999976158142,-4.953999996185303 C0.8240000009536743,1.8849999904632568 0.8149999976158142,1.0850000381469727 0.8149999976158142,1.0850000381469727 C0.8149999976158142,3.292600154876709 0.8149999976158142,6.536843776702881 0.8149999976158142,8.324999809265137 C0.8149999976158142,8.324999809265137 0.8149999976158142,8.324999809265137 0.8149999976158142,8.324999809265137 C0.8149999976158142,10.113155364990234 2.158234119415283,10.378231048583984 3.812621593475342,8.916553497314453 C3.812621593475342,8.916553497314453 10.514378547668457,2.995445728302002 10.514378547668457,2.995445728302002z"></path></g></g></g></svg>