<svg xmlns="http://www.w3.org/2000/svg" viewBox="0 0 72 72" width="72" height="72" preserveAspectRatio="xMidYMid meet" style="width: 100%; height: 100%; transform: translate3d(0px, 0px, 0px); content-visibility: visible;"><defs><clipPath id="__lottie_element_1501"><rect width="72" height="72" x="0" y="0"></rect></clipPath><clipPath id="__lottie_element_1503"><path d="M0,0 L72,0 L72,72 L0,72z"></path></clipPath><clipPath id="__lottie_element_1507"><path d="M0,0 L24,0 L24,24 L0,24z"></path></clipPath></defs><g clip-path="url(#__lottie_element_1501)"><g clip-path="url(#__lottie_element_1503)" transform="matrix(1,0,0,1,0,0)" opacity="1" style="display: block;"><g transform="matrix(2,0,0,2,36,36)" opacity="1" style="display: block;"><g opacity="1" transform="matrix(1,0,0,1,-1.121000051498413,-4.669000148773193)"><path stroke-linecap="butt" stroke-linejoin="miter" fill-opacity="0" stroke-miterlimit="4" stroke="rgb(47,48,53)" stroke-opacity="1" stroke-width="1.7" d=" M0,-4.581500053405762 C2.5285298824310303,-4.581500053405762 4.581500053405762,-2.5285298824310303 4.581500053405762,0 C4.581500053405762,2.5285298824310303 2.5285298824310303,4.581500053405762 0,4.581500053405762 C-2.5285298824310303,4.581500053405762 -4.581500053405762,2.5285298824310303 -4.581500053405762,0 C-4.581500053405762,-2.5285298824310303 -2.5285298824310303,-4.581500053405762 0,-4.581500053405762z"></path></g></g><g transform="matrix(2,0,0,2,36,36)" opacity="1" style="display: block;"><g opacity="1" transform="matrix(1,0,0,1,-1.121000051498413,7.955999851226807)"><path stroke-linecap="butt" stroke-linejoin="miter" fill-opacity="0" stroke-miterlimit="4" stroke="rgb(47,48,53)" stroke-opacity="1" stroke-width="1.7" d=" M-7.879000186920166,1.3899999856948853 C-7.959000110626221,0.9390000104904175 -8,0.4740000069141388 -8,0 C-8,-4.415200233459473 -4.415200233459473,-8 0,-8 C0,-8 0,-8 0,-8 C2.3380000591278076,-8 4.442999839782715,-6.994999885559082 5.906000137329102,-5.394000053405762"></path></g></g><g clip-path="url(#__lottie_element_1507)" transform="matrix(0.7071067690849304,0.7071067690849304,-0.7071067690849304,0.7071067690849304,46.5,27.529438018798828)" opacity="1" style="display: block;"><g transform="matrix(1.5,0,0,2,15.968000411987305,26)" opacity="1" style="display: block;"><g opacity="1" transform="matrix(1,0,0,1,0,0)"><path stroke-linecap="butt" stroke-linejoin="miter" fill-opacity="0" stroke-miterlimit="4" stroke="rgb(47,48,53)" stroke-opacity="1" stroke-width="1.7" d=" M-6.061999797821045,-3.125 C-6.061999797821045,-3.125 2,-3.125 2,-3.125"></path></g></g><g transform="matrix(0,1.899999976158142,-2,0,11,14.559399604797363)" opacity="1" style="display: block;"><g opacity="1" transform="matrix(1,0,0,1,0,0)"><path stroke-linecap="butt" stroke-linejoin="miter" fill-opacity="0" stroke-miterlimit="4" stroke="rgb(47,48,53)" stroke-opacity="1" stroke-width="1.7" d=" M-6.061999797821045,-3.125 C-6.061999797821045,-3.125 2,-3.125 2,-3.125"></path></g></g></g></g></g></svg>