 <svg width="20" height="20" fill="none" xmlns="http://www.w3.org/2000/svg" class="" viewBox="0 0 20 20">
   <g opacity="0.9" fill="currentColor">
   <path d="M14.873 15.507h-.45V14.21a4.28 4.28 0 00-2.398-3.846 4.28 4.28 0 002.398-3.845V5.22h.45c.232 0 .42-.191.42-.428a.424.424 0 00-.42-.429H5.42a.424.424 0 00-.42.429c0 .237.188.428.42.428h.442V6.52a4.28 4.28 0 002.398 3.845 4.28 4.28 0 00-2.398 3.846v1.297H5.42a.424.424 0 00-.42.429c0 .236.188.428.42.428h9.453c.232 0 .42-.192.42-.428a.424.424 0 00-.42-.429zM6.719 6.492v-1.27h6.872v1.27a3.436 3.436 0 01-6.872 0zm6.872 9.015H6.719v-1.27a3.436 3.436 0 016.872 0v1.27z">
   </path>
   <path d="M10.578 8.656a.429.429 0 00-.43-.429c-.96 0-1.712-.752-1.712-1.712a.429.429 0 00-.858 0c0 1.441 1.13 2.57 2.57 2.57a.429.429 0 00.43-.429z">
   </path>
  </g>
</svg>