<svg width="24" height="24" fill="none" xmlns="http://www.w3.org/2000/svg" class="lG5TmBA_" viewBox="0 0 24 24"><path fill-rule="evenodd" clip-rule="evenodd" d="M5.757 12.268a6.397 6.397 0 1112.793 0 6.397 6.397 0 01-12.793 0zm6.396-7.897a7.897 7.897 0 100 15.793 7.897 7.897 0 000-15.793zm2.127 3.52v-.497h-1.5v6.462h.001c0 .854-.685 1.536-1.517 1.536a1.527 1.527 0 01-1.517-1.536c0-.854.685-1.536 1.517-1.536v-1.5c-1.672 0-3.017 1.365-3.017 3.036 0 1.67 1.345 3.036 3.017 3.036s3.017-1.365 3.017-3.036h-.001v-3.228a3.184 3.184 0 001.715.498v-1.5a1.725 1.725 0 01-1.715-1.735z" fill="currentColor"></path></svg>