<svg width="15" height="16" fill="none" xmlns="http://www.w3.org/2000/svg"  tabindex="0"  aria-describedby="c39ax4s" data-popupid="c39ax4s"><path fill-rule="evenodd" clip-rule="evenodd" d="M7.501 1.75a6.25 6.25 0 1 0 0 12.5 6.25 6.25 0 0 0 0-12.5zm-.954 4.103c-.191.201-.296.48-.296.772a.625.625 0 0 1-1.25 0c0-.583.208-1.18.641-1.634.441-.463 1.079-.741 1.859-.741s1.418.278 1.859.74c.433.456.641 1.052.641 1.635 0 .995-.642 1.587-1.077 1.988l-.06.056c-.482.447-.738.726-.738 1.206h-1.25c0-1.067.663-1.682 1.119-2.105l.018-.017c.504-.468.738-.712.738-1.128 0-.292-.105-.57-.296-.772C8.27 5.66 7.97 5.5 7.5 5.5s-.77.16-.954.353zm1.735 5.428a.781.781 0 1 1-1.562 0 .781.781 0 0 1 1.562 0z" fill="currentColor" fill-opacity="1"></path></svg>