<svg width="18" height="18" fill="none" xmlns="http://www.w3.org/2000/svg" class="mn3Zq6ts" viewBox="0 0 18 18"><mask id="hot-title_svg__a" maskUnits="userSpaceOnUse" x="2" y="0" width="14" height="18" style="mask-type: alpha;"><path d="M12.868 4.654C9.958 2.094 10.82.73 10.58.55c-.24-.18-1.574.676-2.435 1.536-.862.86-1.288 1.688-1.491 2.303-.193.585-.325 1.282-.28 2.455.004.092-.083.162-.169.129-.601-.238-1.14-.828-1.447-1.65-.053-.144-.232-.201-.347-.1-2.006 1.77-2.404 4.612-2.04 6.792.378 2.267 2.762 5.45 6.53 5.45 3.768 0 6.34-2.864 6.73-5.45.585-3.884-1.08-5.88-2.763-7.36z" fill="url(#hot-title_svg__paint0_linear_23214_185615)"></path></mask><g mask="url(#hot-title_svg__a)"><path fill-rule="evenodd" clip-rule="evenodd" d="M4.477 4.84c-1.383 1.703-2.77 3.774-2.77 5.786 0 3.837 3.597 7.377 8.9 7.377 4.186 0 5.95.256 3.984-5.245-.03-.086.142-.327-.21-.179-1.37-.351-3.521-1.615-5.474-3.234C7.109 7.853 5.47 6.04 4.96 4.809c-.137-.123-.37-.108-.484.032z" fill="url(#hot-title_svg__paint1_linear_23214_185615)"></path><mask id="hot-title_svg__b" maskUnits="userSpaceOnUse" x="2" y="4" width="13" height="14" style="mask-type: alpha;"><path fill-rule="evenodd" clip-rule="evenodd" d="M4.577 4.434a9.533 9.533 0 00-1.903 5.714c0 3.842 3.295 7.388 8.155 7.388 3.835 0 4.817.338 3.015-5.172a.278.278 0 00-.191-.179c-1.256-.352-3.458-1.443-5.247-3.066C6.758 7.626 5.487 5.636 5.02 4.402a.3.3 0 00-.443.032z" fill="#fff"></path></mask><g mask="url(#hot-title_svg__b)"><path fill-rule="evenodd" clip-rule="evenodd" d="M6.186 1.047A9.533 9.533 0 004.283 6.76c0 3.842 3.295 7.389 8.154 7.389 3.836 0 4.818.337 3.016-5.173a.278.278 0 00-.192-.178c-1.255-.352-3.457-1.444-5.246-3.066-1.648-1.494-2.919-3.483-3.386-4.717a.3.3 0 00-.443.032z" fill="url(#hot-title_svg__paint2_linear_23214_185615)"></path></g><g filter="url(#hot-title_svg__filter0_i_23214_185615)"><path fill-rule="evenodd" clip-rule="evenodd" d="M10.841-.795c-.007-.194-.203-.49-.61-.203C7.184.899 6.262 3.644 6.302 5.98c.087 2.408 1.454 3.819 3.727 5.962 2.16 1.98 1.912 4.144.61 5.691-.152.18.006.425.27.42 4.49-.077 6.844-1.127 6.641-6.427-.103-2.398-1.003-5.195-4.065-7.747C11.45 2.186 10.88.213 10.84-.795z" fill="url(#hot-title_svg__paint3_linear_23214_185615)"></path></g><mask id="hot-title_svg__c" maskUnits="userSpaceOnUse" x="6" y="-1" width="13" height="21" style="mask-type: alpha;"><path fill-rule="evenodd" clip-rule="evenodd" d="M10.68.272c-.008-.213-.255-.347-.466-.252-3.1 1.389-3.977 3.353-3.932 5.914.09 2.64 1.283 5.087 3.56 7.439 2.163 2.173 1.881 4.142.582 5.836-.151.197.007.466.27.461 4.49-.078 8.104-2.052 7.892-7.861-.106-2.628-2.075-4.51-5.745-7.45-2.15-1.828-2.119-2.982-2.16-4.087z" fill="#fff"></path></mask><g mask="url(#hot-title_svg__c)"><path fill-rule="evenodd" clip-rule="evenodd" d="M12.238-1.388s.25 1.738 1.605 2.93c1.355 1.194 5.223 3.73 5.701 7.491.479 3.761-1.396 7.952-4.93 8.258 1.318-2.778-1.942-6.524-1.942-6.524s-2.79-3.109-3.232-6.39c-.454-3.572 2.798-5.765 2.798-5.765z" fill="url(#hot-title_svg__paint4_linear_23214_185615)"></path></g></g><defs><linearGradient id="hot-title_svg__paint0_linear_23214_185615" x1="11.787" y1="6.208" x2="5.816" y2="14.015" gradientUnits="userSpaceOnUse"><stop stop-color="#FFDF5A"></stop><stop offset="1" stop-color="#FFBD0B"></stop></linearGradient><linearGradient id="hot-title_svg__paint1_linear_23214_185615" x1="15.543" y1="4.726" x2="15.543" y2="17.926" gradientUnits="userSpaceOnUse"><stop stop-color="#FFCB0F"></stop><stop offset="1" stop-color="#F80"></stop></linearGradient><linearGradient id="hot-title_svg__paint2_linear_23214_185615" x1="14.126" y1="5.761" x2="14.126" y2="14.153" gradientUnits="userSpaceOnUse"><stop stop-color="#fff" stop-opacity="0.319"></stop><stop offset="1" stop-color="#fff" stop-opacity="0.01"></stop></linearGradient><linearGradient id="hot-title_svg__paint3_linear_23214_185615" x1="5.577" y1="17.472" x2="5.264" y2="-0.487" gradientUnits="userSpaceOnUse"><stop stop-color="#FF9C09"></stop><stop offset="1" stop-color="#FFEE7E"></stop></linearGradient><linearGradient id="hot-title_svg__paint4_linear_23214_185615" x1="18.169" y1="-1.913" x2="19.827" y2="16.83" gradientUnits="userSpaceOnUse"><stop stop-color="#fff" stop-opacity="0.301"></stop><stop offset="1" stop-color="#fff" stop-opacity="0.199"></stop></linearGradient><filter id="hot-title_svg__filter0_i_23214_185615" x="6.301" y="-1.118" width="11.26" height="19.173" filterUnits="userSpaceOnUse" color-interpolation-filters="sRGB"><feFlood flood-opacity="0" result="BackgroundImageFix"></feFlood><feBlend in="SourceGraphic" in2="BackgroundImageFix" result="shape"></feBlend><feColorMatrix in="SourceAlpha" values="0 0 0 0 0 0 0 0 0 0 0 0 0 0 0 0 0 0 127 0" result="hardAlpha"></feColorMatrix><feOffset dx="-2.168" dy="6.504"></feOffset><feComposite in2="hardAlpha" operator="arithmetic" k2="-1" k3="1"></feComposite><feColorMatrix values="0 0 0 0 1 0 0 0 0 1 0 0 0 0 1 0 0 0 0.197917 0"></feColorMatrix><feBlend in2="shape" result="effect1_innerShadow_23214_185615"></feBlend></filter></defs></svg>