              <svg
                width="16"
                height="16"
                fill="none"
                xmlns="http://www.w3.org/2000/svg"
                class="num-icon"
                viewBox="0 0 16 16"
              >
                <path
                  d="M7.999 1.246a1.6 1.6 0 011.6 0l5.328 3.076c.495.286.8.814.8 1.386v6.152a1.6 1.6 0 01-.8 1.386L9.6 16.322a1.6 1.6 0 01-1.601 0l-5.328-3.076a1.6 1.6 0 01-.8-1.386V5.708c0-.572.305-1.1.8-1.386L8 1.246z"
                  fill="url(#hot-top3_svg__paint0_linear_2723_113260)"
                ></path>
                <g filter="url(#hot-top3_svg__filter0_d_2723_113260)">
                  <path
                    d="M6.26 10.234c0-.067.034-.107.1-.12l1.31-.21c.067-.014.1.013.1.08.014.173.07.313.17.42.1.107.25.16.45.16a.74.74 0 00.6-.28c.16-.194.24-.427.24-.7 0-.2-.056-.354-.17-.46-.113-.114-.273-.17-.48-.17h-.27c-.066 0-.093-.034-.08-.1l.19-1.12c.02-.067.06-.1.12-.1h.25c.24 0 .437-.087.59-.26a.945.945 0 00.23-.65.536.536 0 00-.13-.38c-.086-.094-.21-.14-.37-.14a.676.676 0 00-.45.16c-.12.1-.216.236-.29.41-.026.06-.066.086-.12.08L7 6.654c-.053-.014-.07-.054-.05-.12.08-.24.197-.46.35-.66a2.395 2.395 0 011.26-.88 2.8 2.8 0 01.87-.13c.3 0 .564.04.79.12.227.073.417.176.57.31.154.133.267.293.34.48.08.18.12.38.12.6a1.997 1.997 0 01-1.02 1.77v.02c.16.093.3.24.42.44.127.193.19.45.19.77 0 .373-.07.716-.21 1.03a2.485 2.485 0 01-.55.8 2.58 2.58 0 01-.83.52c-.32.12-.663.18-1.03.18-.306 0-.583-.04-.83-.12-.24-.08-.446-.19-.62-.33a1.543 1.543 0 01-.39-.53 1.653 1.653 0 01-.12-.69z"
                    fill="#fff"
                  ></path>
                </g>
                <defs>
                  <linearGradient
                    id="hot-top3_svg__paint0_linear_2723_113260"
                    x1="11.599"
                    y1="15.184"
                    x2="6.799"
                    y2="1.984"
                    gradientUnits="userSpaceOnUse"
                  >
                    <stop offset="0.167" stop-color="#D67F66"></stop>
                    <stop offset="1" stop-color="#FEC9B9"></stop>
                  </linearGradient>
                  <filter
                    id="hot-top3_svg__filter0_d_2723_113260"
                    x="6.251"
                    y="4.864"
                    width="5"
                    height="7.84"
                    filterUnits="userSpaceOnUse"
                    color-interpolation-filters="sRGB"
                  >
                    <feFlood
                      flood-opacity="0"
                      result="BackgroundImageFix"
                    ></feFlood>
                    <feColorMatrix
                      in="SourceAlpha"
                      values="0 0 0 0 0 0 0 0 0 0 0 0 0 0 0 0 0 0 127 0"
                      result="hardAlpha"
                    ></feColorMatrix>
                    <feOffset dy="0.8"></feOffset>
                    <feComposite in2="hardAlpha" operator="out"></feComposite>
                    <feColorMatrix
                      values="0 0 0 0 0 0 0 0 0 0 0 0 0 0 0 0 0 0 0.25 0"
                    ></feColorMatrix>
                    <feBlend
                      in2="BackgroundImageFix"
                      result="effect1_dropShadow_2723_113260"
                    ></feBlend>
                    <feBlend
                      in="SourceGraphic"
                      in2="effect1_dropShadow_2723_113260"
                      result="shape"
                    ></feBlend>
                  </filter>
                </defs>
              </svg>