<svg width="12" height="24" fill="none" xmlns="http://www.w3.org/2000/svg" class="G3unAaWo" viewBox="0 0 12 24"><path d="M1.548 17.093c0-.113.035-.21.105-.294l5.019-5.964c.28-.323.49-.638.63-.945.14-.322.21-.665.21-1.03 0-.475-.14-.867-.42-1.175-.266-.308-.644-.462-1.134-.462-.994 0-1.554.56-1.68 1.68 0 .14-.077.196-.231.168l-2.31-.378c-.14-.028-.196-.112-.168-.252.042-.49.168-.96.378-1.407.21-.448.504-.84.882-1.176a4.493 4.493 0 011.386-.798c.546-.21 1.162-.315 1.848-.315.686 0 1.295.105 1.827.315.546.21 1.008.497 1.386.86.378.365.665.799.861 1.303.21.49.315 1.022.315 1.596 0 .686-.133 1.308-.399 1.868a6.819 6.819 0 01-1.05 1.597l-3.759 4.43v.043h4.998c.14 0 .21.07.21.21v2.079c0 .14-.07.21-.21.21H1.758c-.14 0-.21-.07-.21-.21v-1.953z" fill="currentColor" fill-opacity="0.4"></path></svg>