<svg width="12" height="24" fill="none" xmlns="http://www.w3.org/2000/svg" class="G3unAaWo" viewBox="0 0 12 24"><path d="M1.352 16.095c-.028-.14.028-.231.168-.273l2.31-.441c.126-.014.21.042.252.168.126.378.343.7.651.966.308.252.714.378 1.218.378.546 0 .973-.175 1.281-.525.322-.35.483-.791.483-1.323 0-.644-.182-1.141-.546-1.491-.35-.35-.833-.525-1.449-.525h-.609c-.14 0-.21-.07-.21-.21v-2.037c0-.14.07-.21.21-.21h.567c.532 0 .959-.161 1.281-.483.322-.322.483-.756.483-1.302 0-.504-.147-.91-.441-1.218-.28-.308-.672-.462-1.176-.462-.448 0-.805.119-1.071.357-.252.238-.434.56-.546.966-.042.126-.126.175-.252.147l-2.289-.441c-.14-.028-.196-.105-.168-.231.084-.476.245-.91.483-1.302.238-.406.546-.756.924-1.05.392-.294.84-.518 1.344-.672a5.56 5.56 0 011.722-.252c.7 0 1.323.098 1.869.294a4 4 0 011.386.819c.378.35.665.77.861 1.26.196.476.294 1.001.294 1.575a3.4 3.4 0 01-.42 1.68 3.368 3.368 0 01-1.176 1.26v.042c.21.112.427.266.651.462.224.196.427.441.609.735.182.28.329.609.441.987.112.378.168.805.168 1.281 0 .658-.119 1.253-.357 1.785a3.79 3.79 0 01-.966 1.365c-.42.378-.917.672-1.491.882-.56.21-1.176.315-1.848.315-1.218 0-2.247-.287-3.087-.861-.84-.574-1.358-1.379-1.554-2.415z" fill="currentColor" fill-opacity="0.4"></path></svg>