<svg width="12" height="24" fill="none" xmlns="http://www.w3.org/2000/svg" class="G3unAaWo" viewBox="0 0 12 24"><path d="M4.068 14.898c0 .588.175 1.071.525 1.449.35.364.819.546 1.407.546.588 0 1.057-.182 1.407-.546.35-.378.525-.861.525-1.449 0-.588-.175-1.064-.525-1.428-.35-.364-.819-.546-1.407-.546-.588 0-1.057.182-1.407.546-.35.364-.525.84-.525 1.428zM6 10.446c.49 0 .882-.161 1.176-.483.308-.336.462-.728.462-1.176 0-.462-.154-.854-.462-1.176-.294-.336-.686-.504-1.176-.504-.49 0-.889.168-1.197.504a1.681 1.681 0 00-.441 1.176c0 .448.147.84.441 1.176.308.322.707.483 1.197.483zm-4.83 4.578c0-.798.168-1.477.504-2.037.35-.56.749-.994 1.197-1.302v-.042c-.336-.238-.651-.602-.945-1.092-.294-.504-.441-1.092-.441-1.764 0-.546.098-1.071.294-1.575.196-.504.483-.945.861-1.323.392-.392.868-.7 1.428-.924.56-.224 1.204-.336 1.932-.336s1.372.112 1.932.336c.56.224 1.029.532 1.407.924.392.378.686.819.882 1.323.196.504.294 1.029.294 1.575 0 .672-.147 1.26-.441 1.764-.294.49-.609.854-.945 1.092v.042c.448.308.84.742 1.176 1.302.35.56.525 1.239.525 2.037 0 .658-.126 1.253-.378 1.785a3.899 3.899 0 01-1.008 1.365c-.42.378-.931.672-1.533.882A5.642 5.642 0 016 19.371c-.7 0-1.344-.105-1.932-.315a4.728 4.728 0 01-1.533-.882 4.277 4.277 0 01-1.008-1.365 4.324 4.324 0 01-.357-1.785z" fill="currentColor" fill-opacity="0.4"></path></svg>