<svg width="12" height="24" fill="none" xmlns="http://www.w3.org/2000/svg" class="G3unAaWo" viewBox="0 0 12 24"><path d="M4.551 15.927c.21.644.693.966 1.449.966.756 0 1.239-.322 1.449-.966.028-.098.049-.21.063-.336.028-.126.049-.322.063-.588.014-.28.021-.651.021-1.113.014-.476.021-1.106.021-1.89 0-.784-.007-1.407-.021-1.869 0-.476-.007-.847-.021-1.113a4.058 4.058 0 00-.063-.609 2.057 2.057 0 00-.063-.336c-.21-.644-.693-.966-1.449-.966-.756 0-1.239.322-1.449.966-.028.098-.056.21-.084.336-.014.126-.028.329-.042.609-.014.266-.028.637-.042 1.113v3.759c.014.462.028.833.042 1.113.014.266.028.462.042.588.028.126.056.238.084.336zm-2.856.525a4.317 4.317 0 01-.147-.504 15.408 15.408 0 01-.084-.756 21.83 21.83 0 01-.063-1.239A73.158 73.158 0 011.38 12c0-.798.007-1.449.021-1.953.014-.504.035-.91.063-1.218.028-.322.056-.574.084-.756.042-.196.091-.371.147-.525.294-.924.798-1.638 1.512-2.142.728-.518 1.659-.777 2.793-.777 1.134 0 2.058.259 2.772.777.728.504 1.239 1.218 1.533 2.142.056.154.098.329.126.525.042.182.077.434.105.756.028.308.049.714.063 1.218.014.504.021 1.155.021 1.953s-.007 1.449-.021 1.953a21.83 21.83 0 01-.063 1.239c-.028.308-.063.56-.105.756-.028.182-.07.35-.126.504-.294.924-.805 1.645-1.533 2.163-.714.504-1.638.756-2.772.756s-2.065-.252-2.793-.756c-.714-.518-1.218-1.239-1.512-2.163z" fill="currentColor" fill-opacity="0.4"></path></svg>