<svg width="12" height="24" fill="none" xmlns="http://www.w3.org/2000/svg" class="G3unAaWo" viewBox="0 0 12 24"><path d="M1.191 17.061c-.14 0-.21-.07-.21-.21v-2.142c0-.112.014-.196.042-.252l4.284-9.429c.056-.112.154-.168.294-.168h2.667c.14 0 .189.07.147.21l-4.284 9.387v.063h2.625c.084 0 .126-.042.126-.126v-3.087c0-.14.07-.21.21-.21h2.436c.14 0 .21.07.21.21v3.087c0 .084.042.126.126.126h.945c.14 0 .21.07.21.21v2.121c0 .14-.07.21-.21.21h-.945c-.084 0-.126.042-.126.126v1.743c0 .14-.07.21-.21.21H7.092c-.14 0-.21-.07-.21-.21v-1.743c0-.084-.042-.126-.126-.126H1.191z" fill="currentColor" fill-opacity="0.4"></path></svg>