<svg width="12" height="24" fill="none" xmlns="http://www.w3.org/2000/svg" class="G3unAaWo" viewBox="0 0 12 24"><path d="M1.541 16.105c-.028-.126.028-.203.168-.23l2.268-.441c.126-.014.21.042.252.168.126.335.322.616.588.84.266.224.623.335 1.071.335.364 0 .672-.084.924-.252.266-.167.455-.42.567-.755.07-.168.112-.357.126-.567a6.75 6.75 0 00.042-.82c0-.35-.014-.63-.042-.84a1.773 1.773 0 00-.126-.566c-.112-.364-.3-.617-.567-.757a1.81 1.81 0 00-.924-.23c-.392 0-.707.083-.945.252a1.737 1.737 0 00-.504.566c-.056.14-.147.21-.273.21H1.92c-.14 0-.21-.07-.21-.21V4.956c0-.14.07-.21.21-.21H9.9c.14 0 .21.07.21.21v2.079c0 .14-.07.21-.21.21H4.42c-.085 0-.127.042-.127.126v2.814h.063c.182-.154.448-.301.798-.441.364-.154.812-.231 1.344-.231.924 0 1.701.203 2.331.608.63.407 1.078 1.009 1.344 1.807a4.9 4.9 0 01.21.987c.056.364.084.847.084 1.449 0 .447-.028.86-.084 1.239a6.025 6.025 0 01-.23.986c-.28.883-.799 1.547-1.555 1.995-.756.449-1.645.673-2.667.673a5.734 5.734 0 01-1.68-.232 4.955 4.955 0 01-1.344-.63 3.518 3.518 0 01-.924-1.007 3.176 3.176 0 01-.44-1.282z" fill="currentColor" fill-opacity="0.4"></path></svg>