<svg width="12" height="24" fill="none" xmlns="http://www.w3.org/2000/svg" class="G3unAaWo" viewBox="0 0 12 24"><path d="M4.11 14.803c0 .588.168 1.064.504 1.428.336.364.798.546 1.386.546.588 0 1.05-.181 1.386-.546.336-.364.504-.84.504-1.428s-.168-1.064-.504-1.428c-.336-.377-.798-.566-1.386-.566-.588 0-1.05.189-1.386.567-.336.364-.504.84-.504 1.428zm-2.898-.042c0-.615.091-1.204.273-1.763.182-.56.441-1.148.777-1.764l3.465-6.342c.042-.098.126-.147.252-.147h2.667c.168 0 .217.07.147.21l-3.024 5.522.042.043c.07-.028.182-.056.336-.085a3.956 3.956 0 012.121.273c.504.197.938.483 1.302.861.378.364.672.813.882 1.345.224.531.336 1.127.336 1.784 0 .714-.126 1.358-.378 1.933a4.01 4.01 0 01-1.008 1.427c-.42.393-.924.694-1.512.904a5.94 5.94 0 01-1.89.294 6.008 6.008 0 01-1.911-.294 4.775 4.775 0 01-1.512-.883 4.392 4.392 0 01-1.008-1.428c-.238-.56-.357-1.19-.357-1.89z" fill="currentColor" fill-opacity="0.4"></path></svg>