<svg width="12" height="24" fill="none" xmlns="http://www.w3.org/2000/svg" class="G3unAaWo" viewBox="0 0 12 24"><path d="M6 11.191c.588 0 1.05-.182 1.386-.546.336-.377.504-.86.504-1.448s-.168-1.064-.504-1.428C7.05 7.405 6.588 7.223 6 7.223c-.588 0-1.05.182-1.386.546-.336.364-.504.84-.504 1.428s.168 1.07.504 1.449c.336.363.798.545 1.386.545zm.231 2.332l-.042-.043a2.954 2.954 0 01-.882.126c-.56 0-1.092-.098-1.596-.293a4.305 4.305 0 01-1.302-.862 4.411 4.411 0 01-.882-1.365 4.825 4.825 0 01-.315-1.784c0-.714.119-1.351.357-1.911a4.337 4.337 0 011.008-1.45A4.272 4.272 0 014.11 5.06 5.578 5.578 0 016 4.745c.686 0 1.316.105 1.89.315.588.196 1.092.49 1.512.882.434.378.77.847 1.008 1.407.252.56.378 1.19.378 1.89 0 .616-.091 1.204-.273 1.763-.182.56-.441 1.148-.777 1.764l-3.465 6.342a.273.273 0 01-.252.148H3.354c-.168 0-.217-.07-.147-.21l3.024-5.523z" fill="currentColor" fill-opacity="0.4"></path></svg>