<svg width="36" height="36" fill="none" xmlns="http://www.w3.org/2000/svg" viewBox="0 0 36 36"><path fill-rule="evenodd" clip-rule="evenodd" d="M24 10H12a2 2 0 0 0-2 2v8.92l2.738-2.19a2 2 0 0 1 2.53.024l1.738 1.45 4.206-3.442a2 2 0 0 1 2.583.043L26 18.734V12a2 2 0 0 0-2-2zm2 11.071l-.159.182-3.363-2.943-4.206 3.441a2 2 0 0 1-2.546-.011l-1.739-1.449L10 23.481V24a2 2 0 0 0 2 2h12a2 2 0 0 0 2-2v-2.929zM12 8a4 4 0 0 0-4 4v12a4 4 0 0 0 4 4h12a4 4 0 0 0 4-4V12a4 4 0 0 0-4-4H12zm4.25 6.25a1.75 1.75 0 1 1-3.5 0 1.75 1.75 0 0 1 3.5 0z" fill="currentColor" fill-opacity=".9"></path></svg>
