<svg width="24" height="24" fill="none" xmlns="http://www.w3.org/2000/svg">
                <path
                  d="M17.004 12.212a.6.6 0 010-1.2h1.2a.6.6 0 110 1.2h-1.2zM15.954 8.489a.6.6 0 11-.848-.849l.848-.848a.6.6 0 11.849.848l-.849.849zM15.11 15.558a.6.6 0 01.85-.849l.848.849a.6.6 0 11-.849.848l-.848-.848zM7.191 7.638a.6.6 0 01.849-.848l.848.848a.6.6 0 11-.848.849l-.849-.849zM8.038 16.405a.6.6 0 01-.848-.849l.848-.848a.6.6 0 11.849.848l-.849.849zM5.8 12.212a.6.6 0 010-1.2H7a.6.6 0 110 1.2H5.8zM11.41 5.396a.6.6 0 111.2 0v1.2a.6.6 0 01-1.2 0v-1.2zM11.41 16.6a.6.6 0 011.2 0v1.2a.6.6 0 01-1.2 0v-1.2z"
                  fill="currentColor"></path>
                <path fill-rule="evenodd" clip-rule="evenodd"
                  d="M14.4 11.6a2.4 2.4 0 10-4.8 0 2.4 2.4 0 004.8 0zm1.2 0a3.6 3.6 0 10-7.2 0 3.6 3.6 0 007.2 0z"
                  fill="currentColor"></path>
              </svg>