                      <svg
                        width="32"
                        height="32"
                        fill="none"
                        xmlns="http://www.w3.org/2000/svg"
                        class="lI8OjXhd"
                        viewBox="0 0 32 32"
                      >
                        <path
                          fill-rule="evenodd"
                          clip-rule="evenodd"
                          d="M16.19 8.348c.977-1.39 2.58-2.126 4.344-2.126 3.359 0 6.152 2.914 6.152 6.378v.001h.001c0 .098-.002.173-.003.228-.002.075-.003.114.003.125-.013.729-.139 1.331-.362 2.126-.127.143-.244.412-.362.71a3.145 3.145 0 00-.362.708c-.086.144-.176.29-.27.435-.914 1.413-2.164 2.825-3.41 4.07-1.865 1.878-3.758 3.439-4.585 4.12-.23.19-.377.31-.418.352-.294.294-.588.302-.882.303h-.026c-.605 0-.907-.303-1.21-.605a2.842 2.842 0 00-.17-.142 43.885 43.885 0 01-4.934-4.332c-1.472-1.5-2.889-3.22-3.665-4.9-.303-.605-.68-2.045-.698-2.844.007-.007.006-.045.004-.122a8.401 8.401 0 01-.004-.233c0-3.465 2.792-6.378 6.153-6.378 1.76 0 3.365.735 4.705 2.126z"
                          fill="url(#header-like_svg__paint0_linear_14782_217253)"
                        ></path>
                        <defs>
                          <linearGradient
                            id="header-like_svg__paint0_linear_14782_217253"
                            x1="16"
                            y1="18.222"
                            x2="6.667"
                            y2="8.889"
                            gradientUnits="userSpaceOnUse"
                          >
                            <stop stop-color="#FE2C55"></stop>
                            <stop offset="1" stop-color="#FF9BAE"></stop>
                          </linearGradient>
                        </defs>
                      </svg>