<svg xmlns="http://www.w3.org/2000/svg" width="24" height="24" fill="none" class="" viewBox="0 0 24 24"><path fill-rule="evenodd" clip-rule="evenodd" d="M6.75 6A2.75 2.75 0 004 8.75v7a2.75 2.75 0 002.75 2.75h7.501c1.5 0 2.72-1.2 2.75-2.693l1.328 1.021c.823.633 2.014.044 2.011-.995l-.022-7.28a1.25 1.25 0 00-1.976-1.014l-1.353.965A2.75 2.75 0 0014.25 6h-7.5zM17 13.916V10.34l1.82-1.299.019 6.287L17 13.916zM15.5 9.91V8.75c0-.69-.56-1.25-1.25-1.25h-7.5c-.69 0-1.25.56-1.25 1.25v7c0 .69.56 1.25 1.25 1.25h7.501c.69 0 1.25-.56 1.25-1.25v-1.413a.766.766 0 01-.002-.053v-4.33l.001-.044z" fill="currentColor" fill-opacity="0.5"></path></svg>