<svg width="105" height="120" fill="none" xmlns="http://www.w3.org/2000/svg" class="fQfQnSOM" viewBox="0 0 105 120"><g opacity="0.04"><path d="M89.013 24.055C82.55 19.84 77.883 13.098 76.427 5.238A28.704 28.704 0 0175.939 0H55.31l-.035 82.675c-.345 9.257-7.967 16.689-17.307 16.689-2.902 0-5.636-.726-8.044-1.992-5.517-2.907-9.299-8.692-9.299-15.35 0-9.56 7.783-17.343 17.343-17.343 1.783 0 3.495.297 5.119.803V44.423a38.211 38.211 0 00-5.12-.368C17.034 44.055 0 61.088 0 82.027c0 12.848 6.42 24.216 16.213 31.088A37.749 37.749 0 0037.973 120c20.939 0 37.972-17.033 37.972-37.973V40.101a49.054 49.054 0 0028.704 9.227v-20.63a28.56 28.56 0 01-15.636-4.643z" fill="currentColor" fill-opacity="0.9"></path><path d="M88.74 24.474h0a29.057 29.057 0 0015.409 4.72V48.826a48.547 48.547 0 01-27.912-9.131l-.792-.568v42.9c0 20.664-16.81 37.473-37.472 37.473a37.252 37.252 0 01-21.473-6.794l-.285.406.285-.406C6.835 105.922.5 94.704.5 82.027c0-20.663 16.81-37.472 37.467-37.472 1.565 0 3.1.117 4.619.307V64.814a17.46 17.46 0 00-4.62-.635c-9.835 0-17.842 8.006-17.842 17.842 0 6.853 3.892 12.804 9.566 15.793h0a17.732 17.732 0 008.277 2.05c9.61 0 17.451-7.646 17.806-17.17V82.676L55.81.5h19.635c.029 1.647.2 3.259.491 4.829 1.483 7.998 6.231 14.857 12.805 19.145z" stroke="currentColor" stroke-opacity="0.3"></path></g></svg>