<svg xmlns="http://www.w3.org/2000/svg" width="24" height="24" fill="none" class="" viewBox="0 0 24 24"><path fill-rule="evenodd" clip-rule="evenodd" d="M11.125 5.25a.75.75 0 000 1.5h5.5c.69 0 1.25.56 1.25 1.25v8c0 .69-.56 1.25-1.25 1.25h-5.5a.75.75 0 000 1.5h5.5a2.75 2.75 0 002.75-2.75V8a2.75 2.75 0 00-2.75-2.75h-5.5zm-.333 3.47a.75.75 0 011.06 0l2.421 2.42a1.25 1.25 0 010 1.768l-2.33 2.33a.75.75 0 11-1.06-1.061l1.402-1.403h-7.91a.75.75 0 010-1.5h7.91L10.793 9.78a.75.75 0 010-1.06z" fill="currentColor" fill-opacity="0.5"></path></svg>