<?xml version="1.0" encoding="utf-8"?>
<!-- Generator: Adobe Illustrator 26.5.0, SVG Export Plug-In . SVG Version: 6.00 Build 0)  -->
<svg version="1.1" id="图层_1" xmlns="http://www.w3.org/2000/svg" xmlns:xlink="http://www.w3.org/1999/xlink" x="0px" y="0px"
	 viewBox="0 0 72 72" style="enable-background:new 0 0 72 72;" xml:space="preserve">
<style type="text/css">
	.st0{clip-path:url(#SVGID_00000110464179407425630990000010276510992585059754_);}
	.st1{fill:#FFFFFF;fill-opacity:0;stroke:#000000;stroke-width:1.5;stroke-miterlimit:8;}
	
		.st2{fill:#FFFFFF;fill-opacity:0;stroke:#000000;stroke-width:1.5;stroke-linecap:round;stroke-linejoin:round;stroke-miterlimit:8;}
</style>
<g>
	<defs>
		<rect id="SVGID_1_" width="72" height="72"/>
	</defs>
	<clipPath id="SVGID_00000152969685972424603420000006552490080274971270_">
		<use xlink:href="#SVGID_1_"  style="overflow:visible;"/>
	</clipPath>
	<g style="clip-path:url(#SVGID_00000152969685972424603420000006552490080274971270_);">
		<g transform="matrix(1,0,0,1,36,26.822357177734375)">
			<g transform="matrix(2,0,0,2,0,0)">
				<path class="st1" d="M0,4c2.2,0,4-1.8,4-4S2.2-4,0-4s-4,1.8-4,4S-2.2,4,0,4z"/>
			</g>
		</g>
		<g transform="matrix(1,0,0,1,36,45)">
			<g transform="matrix(2,0,0,2,0,0)">
				<path class="st2" d="M0,0"/>
			</g>
		</g>
		<g transform="matrix(1,0,0,1,36,45)">
			<g transform="matrix(2,0,0,2,0,0)">
				<path class="st2" d="M-6.8,4.3C-7,4.2-7.3,4-7.5,3.8c-0.6-0.7-0.3-1.6,0-2.5C-6.8-1-4.3-4.5,0-4.5S6.8-1,7.5,1.3
					c0.3,0.9,0.6,1.8,0,2.5l0,0C6.9,4.5,6,4.5,6,4.5H0h-6C-6,4.5-6.4,4.5-6.8,4.3"/>
			</g>
		</g>
	</g>
</g>
</svg>
