<svg viewBox="0 0 80 80" fill="none" xmlns="http://www.w3.org/2000/svg" width="1em" height="1em" focusable="false"><path fill-rule="evenodd" clip-rule="evenodd" d="M38.9867 64.2496C39.7847 64.2496 40.9816 63.6113 42.0455 62.8931C43.478 61.96 44.8593 61.0091 46.1847 60.0422C45.2431 59.5049 44.3905 58.9054 43.6607 58.3252C42.5468 57.4397 41.5828 56.4919 40.8713 55.6356C40.5185 55.2111 40.1905 54.7645 39.9347 54.3228C39.7515 54.0065 39.335 53.2541 39.3334 52.3437L39.3333 52.3264L39.3335 52.3092C39.3396 51.7652 39.4887 51.3076 39.5881 51.0443C39.7031 50.7395 39.8487 50.4465 40.0001 50.1788C40.3041 49.6411 40.7112 49.065 41.1905 48.4919C41.5862 48.0188 42.0517 47.5231 42.5825 47.0306L41.2422 45.6904C39.9405 44.3886 39.9405 42.2781 41.2422 40.9763C42.544 39.6746 44.6545 39.6746 45.9563 40.9763L48.5105 43.5305C49.677 43.1675 50.9474 42.9426 52.3038 42.9314L52.3126 42.9314C55.5994 42.9152 58.4587 44.1637 60.5946 45.6568C63.4293 41.3055 65 36.8254 65 32.3315C65 22.5964 58.244 16 50.0517 16C45.2996 16 41.7452 18.4412 39.474 22.1021C39.2551 22.4549 38.723 22.4523 38.5068 22.0979C36.2751 18.4393 32.6985 16 27.9483 16C19.756 16 13 22.5964 13 32.3315C13 43.1304 22.0701 53.8496 35.9545 62.8931C37.0184 63.6113 38.1887 64.2496 38.9867 64.2496ZM44.21 43.3334C43.9353 43.0587 43.4899 43.0587 43.2152 43.3334C42.9405 43.6081 42.9405 44.0535 43.2152 44.3282L60.0978 61.2109C60.3725 61.4856 60.8179 61.4856 61.0926 61.2109C61.3674 60.9361 61.3674 60.4908 61.0926 60.216L58.1591 57.2825C60.4056 55.8406 61.7947 53.9205 62.3333 53.0834C62.6533 52.5861 62.6533 51.9582 62.3333 51.4609C61.4163 50.0358 58.0347 45.4722 52.1539 45.4722C50.3388 45.4722 48.7625 45.9056 47.4235 46.5469L44.21 43.3334ZM49.8767 49.0001C50.5222 48.5499 51.3072 48.286 52.1539 48.286C54.3554 48.286 56.1401 50.0706 56.1401 52.2721C56.1401 53.1188 55.8761 53.9038 55.426 54.5494L54.4064 53.5298C54.6145 53.1577 54.7332 52.7288 54.7332 52.2721C54.7332 50.8476 53.5784 49.6928 52.1539 49.6928C51.6973 49.6928 51.2683 49.8115 50.8963 50.0197L49.8767 49.0001ZM42.0201 51.3891C42.4795 50.6848 43.4686 49.3306 44.9927 48.0953L48.2697 51.3723C48.203 51.6615 48.1677 51.9627 48.1677 52.2721C48.1677 54.4736 49.9524 56.2583 52.1539 56.2583C52.4633 56.2583 52.7645 56.2231 53.0537 56.1563L55.4593 58.562C54.4626 58.8798 53.3609 59.0721 52.1539 59.0721C49.6776 59.0721 47.4471 57.9221 45.7274 56.6482C43.9996 55.3683 42.7159 53.9103 42.1188 53.1763C41.7043 52.6668 41.6522 51.9532 42.0201 51.3891Z" fill="currentColor"></path></svg>