<svg xmlns="http://www.w3.org/2000/svg" width="24" height="24" fill="none" class="" viewBox="0 0 24 24"><path fill-rule="evenodd" clip-rule="evenodd" d="M7.996 7.245a2.251 2.251 0 002.122 1.506l3.815.002c.983 0 1.819-.63 2.126-1.508h.4a1.25 1.25 0 011.25 1.245l.033 8.004a1.25 1.25 0 01-1.25 1.255h-9a1.25 1.25 0 01-1.25-1.245L6.21 8.5a1.25 1.25 0 011.25-1.255h.536zM8 5.745a2.25 2.25 0 012.121-1.494l3.814.002a2.25 2.25 0 012.118 1.492h.407a2.75 2.75 0 012.75 2.74l.032 8.003a2.75 2.75 0 01-2.75 2.76h-9a2.75 2.75 0 01-2.75-2.738L4.71 8.506a2.75 2.75 0 012.75-2.76H8zm2.12 1.506a.75.75 0 010-1.5l3.815.002a.75.75 0 11-.001 1.5l-3.815-.002zm-1.104 6.737a.75.75 0 00-.004 1.5l3.254.01a.75.75 0 00.005-1.5l-3.255-.01zm-.747-2.736a.75.75 0 01.751-.748l5.239.007a.75.75 0 11-.002 1.5l-5.24-.007a.75.75 0 01-.748-.752z" fill="currentColor" fill-opacity="0.5"></path></svg>