<svg width="13" height="10" fill="none" xmlns="http://www.w3.org/2000/svg" class="lG5TmBA_" viewBox="0 0 12.65 10"><path fill-rule="evenodd" clip-rule="evenodd" d="M1.5.5A1.5 1.5 0 000 2v6a1.5 1.5 0 001.5 1.5h7.46a1.5 1.5 0 001.5-1.5V6.774l1.362 1.18a.5.5 0 00.827-.378V2.18a.5.5 0 00-.827-.378l-1.362 1.18V2A1.5 1.5 0 008.96.5H1.5zM5.25 3a.75.75 0 01.75.75v.5h.5a.75.75 0 010 1.5H6v.5a.75.75 0 01-1.5 0v-.5H4a.75.75 0 010-1.5h.5v-.5A.75.75 0 015.25 3z" fill="#2F3035" fill-opacity="0.9"></path></svg>