<svg xmlns="http://www.w3.org/2000/svg" viewBox="0 0 72 72" width="72" height="72" preserveAspectRatio="xMidYMid meet" style="width: 100%; height: 100%; transform: translate3d(0px, 0px, 0px); content-visibility: visible;">
<defs><clipPath id="__lottie_element_1523"><rect width="72" height="72" x="0" y="0"></rect></clipPath><clipPath id="__lottie_element_1525"><path d="M0,0 L72,0 L72,72 L0,72z"></path></clipPath></defs><g clip-path="url(#__lottie_element_1523)"><g clip-path="url(#__lottie_element_1525)" transform="matrix(1,0,0,1,0,0)" opacity="1" style="display: block;"><g transform="matrix(2,0,0,2,36,36)" opacity="1" style="display: block;"><g opacity="1" transform="matrix(1,0,0,1,0,0)"><path stroke-linecap="round" stroke-linejoin="round" fill-opacity="0" stroke="rgb(47,48,53)" stroke-opacity="1" stroke-width="1.7" d=" M-2.3359999656677246,-3.75 C-1.472000002861023,-5.35099983215332 0.125,-8.312000274658203 0.125,-8.312000274658203 C0.125,-8.312000274658203 2.9690001010894775,-8.312000274658203 2.9690001010894775,-8.312000274658203 C2.9690001010894775,-8.312000274658203 3,-2.687999963760376 3,-2.687999963760376 C3,-2.687999963760376 9.031000137329102,-2.687999963760376 9.031000137329102,-2.687999963760376 C9.031000137329102,-2.687999963760376 6.625,7.5 6.625,7.5 C6.625,7.5 -4.218999862670898,7.5 -4.218999862670898,7.5 M-4.188000202178955,7.5 C-4.188000202178955,7.5 -7.875,7.5 -7.875,7.5 C-7.875,7.5 -7.859000205993652,-2.7660000324249268 -7.859000205993652,-2.7660000324249268 C-7.859000205993652,-2.7660000324249268 -2.875,-2.75 -2.875,-2.75 C-2.875,-2.75 -2.6559998989105225,-3.1570000648498535 -2.3359999656677246,-3.75"></path></g></g><g transform="matrix(2,0.0004013253783341497,-0.0004013253783341497,2,36,41)" opacity="1" style="display: block;"><g opacity="1" transform="matrix(1,0,0,1,0,0)"><path fill="rgb(24,22,36)" fill-opacity="1" d=" M-3.875,-2.687999963760376 C-3.875,-2.687999963760376 -3.867000102996826,-0.039000000804662704 -3.859999895095825,2.6089999675750732"></path><path stroke-linecap="butt" stroke-linejoin="miter" fill-opacity="0" stroke-miterlimit="4" stroke="rgb(47,48,53)" stroke-opacity="1" stroke-width="1.7" d=" M-3.875,-2.687999963760376 C-3.875,-2.687999963760376 -3.867000102996826,-0.039000000804662704 -3.859999895095825,2.6089999675750732"></path></g></g></g></g></svg>