<svg width="24" height="24" fill="none" xmlns="http://www.w3.org/2000/svg">
            <path fill-rule="evenodd" clip-rule="evenodd"
              d="M8.634 5.401a6.004 6.004 0 018.028 7.363l1.598 1.598a2.75 2.75 0 01-3.89 3.89l-1.588-1.59A6.004 6.004 0 015.398 8.63L5.83 7.6l.79.79 1.807 1.806a1.25 1.25 0 101.768-1.768L8.392 6.624 7.6 5.832l1.034-.43zm1.734 1.078l.888.888a2.75 2.75 0 01-3.89 3.889l-.894-.895a4.504 4.504 0 006.21 4.74l.464-.195.357.356 1.928 1.929a1.25 1.25 0 101.768-1.768l-1.935-1.936-.355-.354.192-.463a4.504 4.504 0 00-4.733-6.191z"
              fill="currentColor"></path>
          </svg>