<svg viewBox="0 0 24 24" fill="none" xmlns="http://www.w3.org/2000/svg" width="24px" height="24px" focusable="false"><path d="M6 8C5.44772 8 5 8.44772 5 9C5 9.55228 5.44772 10 6 10H8C8.55228 10 9 9.55228 9 9C9 8.44772 8.55228 8 8 8H6Z" fill="currentColor"></path><path d="M5 12C5 11.4477 5.44772 11 6 11H8C8.55228 11 9 11.4477 9 12C9 12.5523 8.55228 13 8 13H6C5.44772 13 5 12.5523 5 12Z" fill="currentColor"></path><path d="M6 14C5.44772 14 5 14.4477 5 15C5 15.5523 5.44772 16 6 16H18C18.5523 16 19 15.5523 19 15C19 14.4477 18.5523 14 18 14H6Z" fill="currentColor"></path><path d="M10 9C10 8.44772 10.4477 8 11 8H13C13.5523 8 14 8.44772 14 9C14 9.55228 13.5523 10 13 10H11C10.4477 10 10 9.55228 10 9Z" fill="currentColor"></path><path d="M11 11C10.4477 11 10 11.4477 10 12C10 12.5523 10.4477 13 11 13H13C13.5523 13 14 12.5523 14 12C14 11.4477 13.5523 11 13 11H11Z" fill="currentColor"></path><path d="M15 9C15 8.44772 15.4477 8 16 8H18C18.5523 8 19 8.44772 19 9C19 9.55228 18.5523 10 18 10H16C15.4477 10 15 9.55228 15 9Z" fill="currentColor"></path><path d="M16 11C15.4477 11 15 11.4477 15 12C15 12.5523 15.4477 13 16 13H18C18.5523 13 19 12.5523 19 12C19 11.4477 18.5523 11 18 11H16Z" fill="currentColor"></path><path fill-rule="evenodd" clip-rule="evenodd" d="M4 4C2.89543 4 2 4.89543 2 6V18C2 19.1046 2.89543 20 4 20H20C21.1046 20 22 19.1046 22 18V6C22 4.89543 21.1046 4 20 4H4ZM4 6L20 6V18H4V6Z" fill="currentColor"></path></svg>