<svg width="24" height="24" fill="none" xmlns="http://www.w3.org/2000/svg">
            <path fill-rule="evenodd" clip-rule="evenodd"
              d="M19.956 5.83c.3.286.313.76.028 1.061l-4.756 5.013a.75.75 0 11-1.088-1.033l4.755-5.012a.75.75 0 011.06-.028zM6.76 8.493a1.242 1.242 0 011.242-1.247H15a.75.75 0 000-1.5H8.002A2.742 2.742 0 005.26 8.498l.032 8.012a2.75 2.75 0 002.75 2.739h8.008a2.75 2.75 0 002.75-2.75v-4.5a.75.75 0 00-1.5 0v4.5c0 .69-.56 1.25-1.25 1.25H8.042a1.25 1.25 0 01-1.25-1.245L6.76 8.492zm2.254 5.496a.75.75 0 100 1.5H14.5a.75.75 0 100-1.5H9.014zm.005-3.485a.75.75 0 000 1.5h2.98a.75.75 0 100-1.5H9.02z"
              fill="currentColor"></path>
          </svg>