<svg xmlns="http://www.w3.org/2000/svg" viewBox="0 0 100 100" width="100" height="100" preserveAspectRatio="xMidYMid meet" style="width: 100%; height: 100%; transform: translate3d(0px, 0px, 0px); content-visibility: visible;"><defs><clipPath id="__lottie_element_95"><rect width="100" height="100" x="0" y="0"></rect></clipPath><clipPath id="__lottie_element_100"><path d="M0,0 L1000,0 L1000,1000 L0,1000z"></path></clipPath><clipPath id="__lottie_element_122"><path d="M0,0 L120,0 L120,120 L0,120z"></path></clipPath><clipPath id="__lottie_element_129"><path d="M0,0 L120,0 L120,120 L0,120z"></path></clipPath><clipPath id="__lottie_element_136"><path d="M0,0 L120,0 L120,120 L0,120z"></path></clipPath><clipPath id="__lottie_element_143"><path d="M0,0 L120,0 L120,120 L0,120z"></path></clipPath><clipPath id="__lottie_element_156"><path d="M0,0 L120,0 L120,120 L0,120z"></path></clipPath><clipPath id="__lottie_element_169"><path d="M0,0 L120,0 L120,120 L0,120z"></path></clipPath></defs><g clip-path="url(#__lottie_element_95)"><g clip-path="url(#__lottie_element_169)" style="display: none;"><g style="display: none;"><g><path></path></g></g><g style="display: none;"><g><path></path></g></g><g style="display: none;"></g></g><g clip-path="url(#__lottie_element_156)" style="display: none;" transform="matrix(0.4658204913139343,0,0,0.4658204913139343,23.050769805908203,24.84737777709961)" opacity="1"><g style="display: block;" transform="matrix(1,0,0,1,10,12)" opacity="1"><g opacity="1" transform="matrix(1,0,0,1,0,0)"><path fill="rgb(255,255,255)" fill-opacity="1" d=" M43.79199981689453,4.316999912261963 C45.93899917602539,-1.4390000104904175 54.06100082397461,-1.4390000104904175 56.20800018310547,4.316999912261963 C56.20800018310547,4.316999912261963 65.927001953125,30.375 65.927001953125,30.375 C65.927001953125,30.375 93.6510009765625,31.59000015258789 93.6510009765625,31.59000015258789 C99.7750015258789,31.857999801635742 102.28500366210938,39.60200119018555 97.48799896240234,43.428001403808594 C97.48799896240234,43.428001403808594 75.77100372314453,60.74700164794922 75.77100372314453,60.74700164794922 C75.77100372314453,60.74700164794922 83.18599700927734,87.55599975585938 83.18599700927734,87.55599975585938 C84.8239974975586,93.47799682617188 78.25299835205078,98.26399993896484 73.14099884033203,94.87200164794922 C73.14099884033203,94.87200164794922 50,79.51799774169922 50,79.51799774169922 C50,79.51799774169922 26.858999252319336,94.87200164794922 26.858999252319336,94.87200164794922 C21.746999740600586,98.26399993896484 15.175999641418457,93.47799682617188 16.81399917602539,87.55599975585938 C16.81399917602539,87.55599975585938 24.229000091552734,60.74700164794922 24.229000091552734,60.74700164794922 C24.229000091552734,60.74700164794922 2.51200008392334,43.428001403808594 2.51200008392334,43.428001403808594 C-2.2850000858306885,39.60200119018555 0.22499999403953552,31.857999801635742 6.348999977111816,31.59000015258789 C6.348999977111816,31.59000015258789 34.073001861572266,30.375 34.073001861572266,30.375 C34.073001861572266,30.375 43.79199981689453,4.316999912261963 43.79199981689453,4.316999912261963z"></path></g></g><g style="display: block;" transform="matrix(1,0,0,1,10,45.720001220703125)" opacity="1"><g opacity="1" transform="matrix(1,0,0,1,0,0)"><path fill="rgb(241,241,241)" fill-opacity="1" d=" M77.80999755859375,25.400999069213867 C77.80999755859375,25.400999069213867 97.48799896240234,9.708000183105469 97.48799896240234,9.708000183105469 C100.77100372314453,7.090000152587891 100.63200378417969,2.635999917984009 98.25399780273438,0 C98.02300262451172,0.24799999594688416 97.76799774169922,0.48500001430511475 97.48799896240234,0.7080000042915344 C97.48799896240234,0.7080000042915344 75.77100372314453,18.027000427246094 75.77100372314453,18.027000427246094 C75.77100372314453,18.027000427246094 77.80999755859375,25.400999069213867 77.80999755859375,25.400999069213867z M17.757999420166016,50.42300033569336 C17.757999420166016,50.42300033569336 16.81399917602539,53.83599853515625 16.81399917602539,53.83599853515625 C15.175999641418457,59.757999420166016 21.746999740600586,64.54399871826172 26.858999252319336,61.152000427246094 C26.858999252319336,61.152000427246094 50,45.79800033569336 50,45.79800033569336 C50,45.79800033569336 73.14099884033203,61.152000427246094 73.14099884033203,61.152000427246094 C78.25299835205078,64.54399871826172 84.8239974975586,59.757999420166016 83.18599700927734,53.83599853515625 C83.18599700927734,53.83599853515625 82.24199676513672,50.42300033569336 82.24199676513672,50.42300033569336 C80.31900024414062,53.132999420166016 76.4280014038086,54.33300018310547 73.14099884033203,52.152000427246094 C73.14099884033203,52.152000427246094 50,36.79800033569336 50,36.79800033569336 C50,36.79800033569336 26.858999252319336,52.152000427246094 26.858999252319336,52.152000427246094 C23.57200050354004,54.33300018310547 19.680999755859375,53.132999420166016 17.757999420166016,50.42300033569336z M1.746000051498413,0 C-0.6320000290870667,2.635999917984009 -0.7710000276565552,7.090000152587891 2.51200008392334,9.708000183105469 C2.51200008392334,9.708000183105469 22.190000534057617,25.400999069213867 22.190000534057617,25.400999069213867 C22.190000534057617,25.400999069213867 24.229000091552734,18.027000427246094 24.229000091552734,18.027000427246094 C24.229000091552734,18.027000427246094 2.51200008392334,0.7080000042915344 2.51200008392334,0.7080000042915344 C2.2320001125335693,0.48500001430511475 1.9769999980926514,0.24799999594688416 1.746000051498413,0z"></path></g></g><g style="display: block;" transform="matrix(1,0,0,1,60,60)" opacity="1"></g></g><g clip-path="url(#__lottie_element_143)" transform="matrix(0.4646500051021576,0,0,0.4646500051021576,23.121000289916992,24.773147583007812)" opacity="1" style="display: block;"><g transform="matrix(1,0,0,1,10,12)" opacity="1" style="display: block;"><g opacity="1" transform="matrix(1,0,0,1,0,0)"><path fill="rgb(255,255,255)" fill-opacity="1" d=" M43.79199981689453,4.316999912261963 C45.93899917602539,-1.4390000104904175 54.06100082397461,-1.4390000104904175 56.20800018310547,4.316999912261963 C56.20800018310547,4.316999912261963 65.927001953125,30.375 65.927001953125,30.375 C65.927001953125,30.375 93.6510009765625,31.59000015258789 93.6510009765625,31.59000015258789 C99.7750015258789,31.857999801635742 102.28500366210938,39.60200119018555 97.48799896240234,43.428001403808594 C97.48799896240234,43.428001403808594 75.77100372314453,60.74700164794922 75.77100372314453,60.74700164794922 C75.77100372314453,60.74700164794922 83.18599700927734,87.55599975585938 83.18599700927734,87.55599975585938 C84.8239974975586,93.47799682617188 78.25299835205078,98.26399993896484 73.14099884033203,94.87200164794922 C73.14099884033203,94.87200164794922 50,79.51799774169922 50,79.51799774169922 C50,79.51799774169922 26.858999252319336,94.87200164794922 26.858999252319336,94.87200164794922 C21.746999740600586,98.26399993896484 15.175999641418457,93.47799682617188 16.81399917602539,87.55599975585938 C16.81399917602539,87.55599975585938 24.229000091552734,60.74700164794922 24.229000091552734,60.74700164794922 C24.229000091552734,60.74700164794922 2.51200008392334,43.428001403808594 2.51200008392334,43.428001403808594 C-2.2850000858306885,39.60200119018555 0.22499999403953552,31.857999801635742 6.348999977111816,31.59000015258789 C6.348999977111816,31.59000015258789 34.073001861572266,30.375 34.073001861572266,30.375 C34.073001861572266,30.375 43.79199981689453,4.316999912261963 43.79199981689453,4.316999912261963z"></path></g></g><g transform="matrix(1,0,0,1,10,45.720001220703125)" opacity="1" style="display: block;"><g opacity="1" transform="matrix(1,0,0,1,0,0)"><path fill="rgb(241,241,241)" fill-opacity="1" d=" M77.80999755859375,25.400999069213867 C77.80999755859375,25.400999069213867 97.48799896240234,9.708000183105469 97.48799896240234,9.708000183105469 C100.77100372314453,7.090000152587891 100.63200378417969,2.635999917984009 98.25399780273438,0 C98.02300262451172,0.24799999594688416 97.76799774169922,0.48500001430511475 97.48799896240234,0.7080000042915344 C97.48799896240234,0.7080000042915344 75.77100372314453,18.027000427246094 75.77100372314453,18.027000427246094 C75.77100372314453,18.027000427246094 77.80999755859375,25.400999069213867 77.80999755859375,25.400999069213867z M17.757999420166016,50.42300033569336 C17.757999420166016,50.42300033569336 16.81399917602539,53.83599853515625 16.81399917602539,53.83599853515625 C15.175999641418457,59.757999420166016 21.746999740600586,64.54399871826172 26.858999252319336,61.152000427246094 C26.858999252319336,61.152000427246094 50,45.79800033569336 50,45.79800033569336 C50,45.79800033569336 73.14099884033203,61.152000427246094 73.14099884033203,61.152000427246094 C78.25299835205078,64.54399871826172 84.8239974975586,59.757999420166016 83.18599700927734,53.83599853515625 C83.18599700927734,53.83599853515625 82.24199676513672,50.42300033569336 82.24199676513672,50.42300033569336 C80.31900024414062,53.132999420166016 76.4280014038086,54.33300018310547 73.14099884033203,52.152000427246094 C73.14099884033203,52.152000427246094 50,36.79800033569336 50,36.79800033569336 C50,36.79800033569336 26.858999252319336,52.152000427246094 26.858999252319336,52.152000427246094 C23.57200050354004,54.33300018310547 19.680999755859375,53.132999420166016 17.757999420166016,50.42300033569336z M1.746000051498413,0 C-0.6320000290870667,2.635999917984009 -0.7710000276565552,7.090000152587891 2.51200008392334,9.708000183105469 C2.51200008392334,9.708000183105469 22.190000534057617,25.400999069213867 22.190000534057617,25.400999069213867 C22.190000534057617,25.400999069213867 24.229000091552734,18.027000427246094 24.229000091552734,18.027000427246094 C24.229000091552734,18.027000427246094 2.51200008392334,0.7080000042915344 2.51200008392334,0.7080000042915344 C2.2320001125335693,0.48500001430511475 1.9769999980926514,0.24799999594688416 1.746000051498413,0z"></path></g></g><g transform="matrix(1,0,0,1,60,60)" opacity="1" style="display: block;"></g></g><g clip-path="url(#__lottie_element_136)" style="display: none;"><g style="display: none;"><g><path></path></g></g></g><g clip-path="url(#__lottie_element_129)" style="display: none;" transform="matrix(0,0,0,0,51,49.20000076293945)" opacity="0"><g style="display: block;" transform="matrix(1,0,0,1,10,12)" opacity="1"><g opacity="1" transform="matrix(1,0,0,1,0,0)"><path fill="rgb(255,184,2)" fill-opacity="1" d=" M43.79199981689453,4.316999912261963 C45.93899917602539,-1.4390000104904175 54.06100082397461,-1.4390000104904175 56.20800018310547,4.316999912261963 C56.20800018310547,4.316999912261963 65.927001953125,30.375 65.927001953125,30.375 C65.927001953125,30.375 93.6510009765625,31.59000015258789 93.6510009765625,31.59000015258789 C99.7750015258789,31.857999801635742 102.28500366210938,39.60200119018555 97.48799896240234,43.428001403808594 C97.48799896240234,43.428001403808594 75.77100372314453,60.74700164794922 75.77100372314453,60.74700164794922 C75.77100372314453,60.74700164794922 83.18599700927734,87.55599975585938 83.18599700927734,87.55599975585938 C84.8239974975586,93.47799682617188 78.25299835205078,98.26399993896484 73.14099884033203,94.87200164794922 C73.14099884033203,94.87200164794922 50,79.51799774169922 50,79.51799774169922 C50,79.51799774169922 26.858999252319336,94.87200164794922 26.858999252319336,94.87200164794922 C21.746999740600586,98.26399993896484 15.175999641418457,93.47799682617188 16.81399917602539,87.55599975585938 C16.81399917602539,87.55599975585938 24.229000091552734,60.74700164794922 24.229000091552734,60.74700164794922 C24.229000091552734,60.74700164794922 2.51200008392334,43.428001403808594 2.51200008392334,43.428001403808594 C-2.2850000858306885,39.60200119018555 0.22499999403953552,31.857999801635742 6.348999977111816,31.59000015258789 C6.348999977111816,31.59000015258789 34.073001861572266,30.375 34.073001861572266,30.375 C34.073001861572266,30.375 43.79199981689453,4.316999912261963 43.79199981689453,4.316999912261963z"></path></g></g></g><g clip-path="url(#__lottie_element_122)" style="display: none;"><g style="display: none;"><g><path></path></g></g></g><g style="display: none;"><g><path stroke-linecap="butt" stroke-linejoin="miter" fill-opacity="0" stroke-miterlimit="4"></path></g></g><g clip-path="url(#__lottie_element_100)" style="display: none;" transform="matrix(0.1301020085811615,0,0,0.1301020085811615,-14.050996780395508,-14.051002502441406)" opacity="1"><g style="display: block;" transform="matrix(1,0,0,1,500,500)" opacity="1"><g opacity="1" transform="matrix(1,0,0,1,0.5,-324.5)"><path fill="rgb(250,206,21)" fill-opacity="1" d=" M0,0 C0,0 0,0 0,0 C0,0 0,0 0,0 C0,0 0,0 0,0 C0,0 0,0 0,0z"></path><path stroke-linecap="butt" stroke-linejoin="miter" fill-opacity="0" stroke-miterlimit="4" stroke="rgb(255,255,255)" stroke-opacity="1" stroke-width="0" d=" M0,0 C0,0 0,0 0,0 C0,0 0,0 0,0 C0,0 0,0 0,0 C0,0 0,0 0,0z"></path></g></g><g style="display: block;" transform="matrix(0.5,0.8660253882408142,-0.8660253882408142,0.5,500,500)" opacity="1"><g opacity="1" transform="matrix(1,0,0,1,0.5,-324.5)"><path fill="rgb(255,184,2)" fill-opacity="1" d=" M0,0 C0,0 0,0 0,0 C0,0 0,0 0,0 C0,0 0,0 0,0 C0,0 0,0 0,0z"></path><path stroke-linecap="butt" stroke-linejoin="miter" fill-opacity="0" stroke-miterlimit="4" stroke="rgb(255,255,255)" stroke-opacity="1" stroke-width="0" d=" M0,0 C0,0 0,0 0,0 C0,0 0,0 0,0 C0,0 0,0 0,0 C0,0 0,0 0,0z"></path></g></g><g style="display: block;" transform="matrix(-0.5,0.8660253882408142,-0.8660253882408142,-0.5,500,500)" opacity="1"><g opacity="1" transform="matrix(1,0,0,1,0.5,-324.5)"><path fill="rgb(250,206,21)" fill-opacity="1" d=" M0,0 C0,0 0,0 0,0 C0,0 0,0 0,0 C0,0 0,0 0,0 C0,0 0,0 0,0z"></path><path stroke-linecap="butt" stroke-linejoin="miter" fill-opacity="0" stroke-miterlimit="4" stroke="rgb(255,255,255)" stroke-opacity="1" stroke-width="0" d=" M0,0 C0,0 0,0 0,0 C0,0 0,0 0,0 C0,0 0,0 0,0 C0,0 0,0 0,0z"></path></g></g><g style="display: block;" transform="matrix(-1,0,0,-1,500,500)" opacity="1"><g opacity="1" transform="matrix(1,0,0,1,0.5,-324.5)"><path fill="rgb(255,184,2)" fill-opacity="1" d=" M0,0 C0,0 0,0 0,0 C0,0 0,0 0,0 C0,0 0,0 0,0 C0,0 0,0 0,0z"></path><path stroke-linecap="butt" stroke-linejoin="miter" fill-opacity="0" stroke-miterlimit="4" stroke="rgb(255,255,255)" stroke-opacity="1" stroke-width="0" d=" M0,0 C0,0 0,0 0,0 C0,0 0,0 0,0 C0,0 0,0 0,0 C0,0 0,0 0,0z"></path></g></g><g style="display: block;" transform="matrix(-0.5,-0.8660253882408142,0.8660253882408142,-0.5,500,500)" opacity="1"><g opacity="1" transform="matrix(1,0,0,1,0.5,-324.5)"><path fill="rgb(250,206,21)" fill-opacity="1" d=" M0,0 C0,0 0,0 0,0 C0,0 0,0 0,0 C0,0 0,0 0,0 C0,0 0,0 0,0z"></path><path stroke-linecap="butt" stroke-linejoin="miter" fill-opacity="0" stroke-miterlimit="4" stroke="rgb(255,255,255)" stroke-opacity="1" stroke-width="0" d=" M0,0 C0,0 0,0 0,0 C0,0 0,0 0,0 C0,0 0,0 0,0 C0,0 0,0 0,0z"></path></g></g><g style="display: block;" transform="matrix(0.5,-0.8660253882408142,0.8660253882408142,0.5,500,500)" opacity="1"><g opacity="1" transform="matrix(1,0,0,1,0.5,-324.5)"><path fill="rgb(255,184,2)" fill-opacity="1" d=" M0,0 C0,0 0,0 0,0 C0,0 0,0 0,0 C0,0 0,0 0,0 C0,0 0,0 0,0z"></path><path stroke-linecap="butt" stroke-linejoin="miter" fill-opacity="0" stroke-miterlimit="4" stroke="rgb(255,255,255)" stroke-opacity="1" stroke-width="0" d=" M0,0 C0,0 0,0 0,0 C0,0 0,0 0,0 C0,0 0,0 0,0 C0,0 0,0 0,0z"></path></g></g></g></g></svg>