                <svg
                  width="20"
                  height="20"
                  fill="none"
                  xmlns="http://www.w3.org/2000/svg"
                  viewBox="0 0 20 21"
                >
                  <path
                    d="M4.963 7.628h10.36a.923.923 0 01.922.923v7.025a.923.923 0 01-.923.924H4.964a.923.923 0 01-.923-.924V8.551a.923.923 0 01.922-.923zm.923 1.384a.462.462 0 00-.461.462v5.18a.461.461 0 00.461.46H14.4a.461.461 0 00.462-.46v-5.18a.461.461 0 00-.462-.462H5.886z"
                    fill="currentColor"
                  ></path>
                  <rect
                    x="4"
                    y="4.5"
                    width="12"
                    height="1.333"
                    rx="0.667"
                    fill="currentColor"
                  ></rect>
                </svg>