<svg width="30" height="34" fill="none" xmlns="http://www.w3.org/2000/svg"><path d="M11.64 13.434v-1.31c-.455-.055-.91-.092-1.384-.092C4.609 12.032 0 16.62 0 22.282c0 3.46 1.73 6.537 4.372 8.394a10.177 10.177 0 0 1-2.75-6.973c.017-5.59 4.48-10.141 10.018-10.269Z" fill="#00FAF0"/><path d="M11.877 28.345a4.675 4.675 0 0 0 4.664-4.497V1.545h4.08a7.226 7.226 0 0 1-.127-1.42h-5.575v22.303a4.675 4.675 0 0 1-4.663 4.497c-.783 0-1.53-.2-2.168-.546a4.644 4.644 0 0 0 3.79 1.966ZM28.252 9.12V7.88a7.683 7.683 0 0 1-4.226-1.256 7.916 7.916 0 0 0 4.226 2.494Z" fill="#00FAF0"/><path d="M24.046 6.625a7.72 7.72 0 0 1-1.913-5.08h-1.494a7.835 7.835 0 0 0 3.407 5.08ZM10.256 17.585a4.679 4.679 0 0 0-4.682 4.679c0 1.802 1.02 3.35 2.514 4.133a4.707 4.707 0 0 1-.893-2.731 4.679 4.679 0 0 1 4.682-4.68c.474 0 .947.073 1.384.219v-5.68c-.455-.055-.91-.091-1.384-.091h-.237v4.37a4.325 4.325 0 0 0-1.384-.22Z" fill="#FF0050"/><path d="M28.253 9.12v4.332c-2.896 0-5.556-.928-7.742-2.494v11.306c0 5.644-4.59 10.25-10.256 10.25-2.186 0-4.208-.691-5.865-1.857 1.876 2.003 4.535 3.277 7.505 3.277 5.647 0 10.256-4.587 10.256-10.25V12.378a13.268 13.268 0 0 0 7.741 2.494v-5.57a9.613 9.613 0 0 1-1.639-.183Z" fill="#FF0050"/><path d="M20.51 22.265V10.959a13.268 13.268 0 0 0 7.742 2.494V9.12a7.85 7.85 0 0 1-4.226-2.494 7.66 7.66 0 0 1-3.388-5.08h-4.08v22.303a4.675 4.675 0 0 1-4.664 4.497 4.625 4.625 0 0 1-3.79-1.948 4.678 4.678 0 0 1-2.513-4.133 4.679 4.679 0 0 1 4.682-4.68c.473 0 .947.074 1.384.22v-4.37c-5.538.127-10 4.679-10 10.232 0 2.694 1.038 5.152 2.75 6.973a10.21 10.21 0 0 0 5.866 1.857c5.628.018 10.237-4.588 10.237-10.232Z" fill="#111"/></svg>