<svg width="20" height="20" fill="none" xmlns="http://www.w3.org/2000/svg" class="Oitt_hzE" viewBox="0 0 20 20"><path d="M12.066 5.295l-.553.578.553-.578zM10.281 7.3v.8h.8v-.8h-.8zm-.213.002l-.022.8h.035l-.013-.8zM4.823 9.35l.585.545-.585-.545zm-1.821 4.688l.8.024v-.049l-.8.025zm.632.765l-.703-.383.703.383zm6.647-2.056h.8v-.67l-.658-.118-.142.787zm1.754 1.965l.53.6-.53-.6zm4.275-3.776l.53.599-.53-.6zm.03-1.554l.553-.578-.553.578zm-5.259-3.326c0-.224.27-.34.432-.184l1.106-1.156c-1.18-1.13-3.138-.293-3.138 1.34h1.6zm0 1.244V6.057h-1.6v1.244h1.6zm-1 .801l.2-.001V6.5c-.076 0-.152 0-.228.002l.028 1.6zM5.408 9.896c1.605-1.72 3.93-1.813 4.638-1.794l.043-1.6c-.813-.021-3.754.054-5.851 2.303l1.17 1.091zm-1.607 4.118c-.014-.44.096-1.169.373-1.963.275-.79.69-1.572 1.234-2.155l-1.17-1.09c-.738.79-1.25 1.788-1.575 2.718-.322.924-.483 1.853-.461 2.54l1.6-.05zm-.87.407a.463.463 0 01.234-.208.558.558 0 01.485.034c.158.09.187.207.178.177a1.205 1.205 0 01-.027-.36l-1.6-.049c-.01.335.02.639.104.9.084.26.247.546.55.72.318.183.66.165.921.056.246-.101.442-.286.56-.504l-1.405-.766zm7.35-1.673l.141-.788h-.002l-.005-.001-.014-.003a3.758 3.758 0 00-.232-.034 11.84 11.84 0 00-2.684-.053c-1.532.15-3.549.708-4.554 2.552l1.405.766c.61-1.12 1.916-1.59 3.305-1.726a10.234 10.234 0 012.492.073h.007v.001l.141-.787zm.8 1.174v-1.175h-1.6v1.175h1.6zm.425.192a.255.255 0 01-.425-.192h-1.6c0 1.599 1.886 2.449 3.084 1.39l-1.06-1.198zm4.274-3.777l-4.274 3.777 1.059 1.199 4.274-3.777-1.059-1.199zm.007-.376a.255.255 0 01-.007.376l1.06 1.199c.813-.72.838-1.98.053-2.731L15.787 9.96zm-4.274-4.088l4.274 4.088 1.106-1.156-4.274-4.088-1.106 1.156z" fill="currentColor" fill-opacity="0.9"></path></svg>