<svg width="20" height="20" fill="none" xmlns="http://www.w3.org/2000/svg" class="UGHpJg4D" viewBox="0 0 20 20"><g opacity="0.9"><path fill-rule="evenodd" clip-rule="evenodd" d="M6.148 4.783c.986-.139 1.92.21 2.723.923.11.098.174.238.177.385l.024 1.365 1.354 1a.528.528 0 01.116.731l-.999 1.4.672 1.419a.528.528 0 11-.954.451l-.805-1.699a.528.528 0 01.048-.532l.877-1.23-1.146-.845a.528.528 0 01-.214-.416l-.024-1.384c-.566-.442-1.14-.602-1.702-.523-1.167.164-2.115 1.507-1.893 3.088l.016.107.003.017.009.06.002.021c.029.156.097.384.186.622a3.75 3.75 0 00.267.586c.576.989 1.622 2.007 2.583 2.815a26.035 26.035 0 001.66 1.284l.033.023c.077.056.157.113.193.144.043.036.07.06.096.08a.309.309 0 00.058.035h.005a.137.137 0 00.045-.008c.049-.023.1-.04.154-.047.002 0 .006-.003.016-.01a.465.465 0 00.045-.036l.075-.072c.04-.04.118-.103.187-.158l.018-.014.031-.025c.086-.069.194-.155.32-.259.286-.233.664-.55 1.075-.923.82-.745 1.741-1.688 2.326-2.618.057-.135.106-.226.19-.356.029-.064.06-.131.092-.195.022-.042.05-.093.086-.146a3.821 3.821 0 00.185-.86c0-.02.003-.043.004-.056l.002-.016.008-.104c.108-1.546-.902-2.779-2.037-2.858-.645-.045-1.386.245-1.744.742a.528.528 0 11-.856-.617c.613-.85 1.74-1.244 2.673-1.178 1.87.13 3.154 2.023 3.017 3.985l-.01.126-.001.011c0 .017 0 .033-.002.05-.037.426-.127.77-.261 1.183a.527.527 0 01-.103.182v.001a2.626 2.626 0 00-.1.21.528.528 0 01-.047.084 1.178 1.178 0 00-.139.257.526.526 0 01-.039.076c-.662 1.07-1.684 2.107-2.534 2.879a28.07 28.07 0 01-1.444 1.223l-.032.026-.104.084c-.02.016-.024.02-.021.016a2.47 2.47 0 00-.017.017c-.104.104-.308.306-.625.378a1.156 1.156 0 01-.266.07c-.513.072-.835-.204-.995-.342l-.017-.014-.022-.016a27.104 27.104 0 01-1.858-1.43c-.977-.822-2.14-1.934-2.812-3.086a4.73 4.73 0 01-.347-.753 4.85 4.85 0 01-.245-.857.528.528 0 01-.006-.055l-.001-.006a5.489 5.489 0 01-.02-.132c-.28-1.994.894-4.014 2.791-4.28z" fill="#fff" fill-opacity="0.7"></path><path d="M9.713 14.655h0l.015-.01m-.015.01l-.001-.001m0 0h0l-.054-.05.002-.002m.053.053h-.001l-.03-.068m.03.067v-.002h0l-.006-.038.022.032m-.016.008v-.002h0l-.006-.038-.02-.03v.001h-.002a.086.086 0 01-.003.002m.03.067l-.052-.052h0m.069.044l-.022-.032.33-.235m-.308.267a.465.465 0 00.045-.037l.075-.072c.04-.04.118-.103.187-.158m0 0l-.046-.058.017-.014.032-.026.319-.258a27.11 27.11 0 001.072-.92c.817-.743 1.73-1.678 2.309-2.598.058-.134.108-.228.192-.357.027-.063.058-.13.09-.193.022-.041.05-.092.085-.145.098-.313.152-.541.177-.805l.001-.025.004-.059h0l.002-.016h0l.008-.103c.106-1.516-.884-2.703-1.967-2.779-.624-.043-1.338.24-1.678.712a.603.603 0 11-.978-.705c.631-.875 1.786-1.276 2.74-1.21 1.922.135 3.225 2.075 3.086 4.066l-.01.128-.001.007a.63.63 0 01-.003.053c-.037.434-.13.784-.264 1.2a.602.602 0 01-.113.204 2.66 2.66 0 00-.093.196.608.608 0 01-.052.096c-.073.109-.09.143-.132.244a.61.61 0 01-.045.087c-.668 1.079-1.696 2.12-2.548 2.894-.43.39-.825.721-1.12.962-.13.107-.242.196-.327.264h0l-.032.026-.104.084h0l-.02.016h0l-.012.012-.002.002c-.104.104-.319.317-.653.395-.088.034-.181.058-.278.072-.548.077-.891-.218-1.054-.358l-.001-.001-.013-.012-.003-.002-.018-.013h0A27.164 27.164 0 016.74 14.01c-.978-.823-2.149-1.941-2.828-3.104a4.81 4.81 0 01-.353-.766 4.924 4.924 0 01-.25-.871.606.606 0 01-.006-.058v-.002h0l-.02-.135c-.285-2.022.906-4.09 2.855-4.365 1.012-.142 1.967.218 2.783.942.126.112.2.271.202.44l.023 1.328 1.325.978a.603.603 0 01.132.835l-.973 1.363.653 1.38a.603.603 0 01-1.09.515l-.804-1.699a.603.603 0 01.054-.608l.834-1.169-1.086-.802a.603.603 0 01-.245-.474l-.024-1.349c-.542-.415-1.087-.56-1.617-.486-1.116.157-2.047 1.452-1.829 3.004l.016.105.003.017h0v.001a1.273 1.273 0 01.011.082c.028.15.095.372.182.606.095.255.193.464.253.56l.009.014-.065.038.065-.038c.569.977 1.607 1.989 2.566 2.795a25.964 25.964 0 001.656 1.281l.033.023-.044.061.044-.06.003.002c.075.054.156.112.195.146a1.936 1.936 0 00.12.095.602.602 0 01.163-.051 2.418 2.418 0 00.109-.1c.043-.041.123-.106.19-.16l.004-.002.046.058zm-.354.208a.082.082 0 00-.019.013l-.002.002m.02-.015l-.02.015m.02-.015s0 0 0 0h.001m0 0h0" stroke="#fff" stroke-opacity="0.7" stroke-width="0.15" stroke-linecap="round" stroke-linejoin="round" fill="currentColor"></path></g></svg>