<svg width="20" height="20" fill="none" xmlns="http://www.w3.org/2000/svg" class="UGHpJg4D" viewBox="0 0 20 20"><path fill-rule="evenodd" clip-rule="evenodd" d="M7.646 4.168c-2.238 0-4.035 1.919-4.035 4.152l.002.13a.834.834 0 00-.001.073c.006.3.075.66.15.962.074.294.178.622.294.86.467 1.004 1.284 1.979 2.071 2.78a23.69 23.69 0 002.646 2.323l.015.012.012.01c.174.175.543.54 1.2.54h.019c.186 0 .63 0 1.028-.387l.033-.027c.033-.029.08-.067.14-.117l.003-.003c.436-.359 1.456-1.2 2.462-2.214.644-.646 1.312-1.396 1.822-2.17a7.94 7.94 0 00.2-.318.84.84 0 00.063-.13.956.956 0 01.11-.214.835.835 0 00.074-.144c.029-.073.05-.121.066-.154l.003-.007a.832.832 0 00.147-.29c.125-.444.21-.835.219-1.316a.82.82 0 00-.002-.067 5.39 5.39 0 00.002-.16c-.015-2.22-1.807-4.124-4.035-4.124-.845 0-1.667.262-2.316.789a4.029 4.029 0 00-2.392-.789zm7.076 4.153V8.424l-.002.07c0 .008 0 .022.002.039a3.065 3.065 0 01-.121.721 1.9 1.9 0 00-.078.144 3.297 3.297 0 00-.089.2c-.083.135-.137.24-.193.38a6.64 6.64 0 01-.124.195v.001c-.425.644-1.007 1.305-1.613 1.912l-.002.001a31.607 31.607 0 01-2.342 2.106l-.032.026-.12.1-.048-.046c-.05-.05-.119-.105-.152-.131l-.006-.005A22.003 22.003 0 017.32 11.96l-.003-.003c-.747-.76-1.408-1.577-1.753-2.323a3.149 3.149 0 01-.185-.555 3.468 3.468 0 01-.1-.553.964.964 0 000-.104V8.42a3.56 3.56 0 01-.001-.099c0-1.373 1.11-2.485 2.368-2.485.662 0 1.288.269 1.848.85a.833.833 0 001.282-.099c.33-.47.892-.751 1.578-.751 1.258 0 2.368 1.113 2.368 2.485z" fill="currentColor" fill-opacity="0.7" opacity="0.9"></path></svg>