<svg width="24" height="24" fill="none" xmlns="http://www.w3.org/2000/svg">
              <path
                d="M16.876 12.58l-.567-.492a.75.75 0 00-.183.491h.75zm2.244-2.593l.567.49a.75.75 0 00-.007-.99l-.56.5zm-3.548-3.981l.56-.5a.75.75 0 00-1.243.19l.683.31zm-7 0l.701-.267a.75.75 0 00-1.248-.246l.547.513zM4.84 9.99l-.547-.513a.75.75 0 00-.015 1.01l.562-.497zm2.299 2.603h.75a.75.75 0 00-.188-.496l-.562.496zm8.737 5.564v-.75.75zm1-1h-.75.75zM8.14 18.92l7.737-.012-.003-1.5-7.736.012.002 1.5zm9.484-1.762V12.58h-1.5v4.578h1.5zm-.182-4.087l2.244-2.592-1.134-.982-2.244 2.592 1.134.982zm2.237-3.582l-3.548-3.981-1.12.998 3.548 3.98 1.12-.997zM8.025 5.493L4.293 9.477l1.095 1.025L9.12 6.518 8.025 5.493zm-3.747 4.993l2.299 2.604 1.124-.993-2.299-2.604-1.124.993zm2.111 2.107v4.575h1.5v-4.574h-1.5zm9.183-6.587l-.683-.31v-.001l.001-.001v-.002l.002-.001-.003.006a2.446 2.446 0 01-.132.223 3.264 3.264 0 01-.499.586c-.453.42-1.172.85-2.262.85v1.5c1.534 0 2.604-.621 3.282-1.25.335-.311.574-.622.73-.858a3.916 3.916 0 00.246-.43v-.001l.001-.001-.683-.31zm-3.576 1.35c-1.088 0-1.76-.426-2.168-.832a2.858 2.858 0 01-.537-.747 1.115 1.115 0 01-.02-.044v.002l.001.002.001.001-.7.268-.702.267a.038.038 0 00.001.002 1.544 1.544 0 01.019.046l.042.094a4.358 4.358 0 00.838 1.173c.647.644 1.686 1.268 3.224 1.268v-1.5zm3.882 11.551a1.75 1.75 0 001.747-1.75h-1.5a.25.25 0 01-.25.25l.003 1.5zm-7.74-1.488a.25.25 0 01-.25-.25h-1.5a1.75 1.75 0 001.753 1.75l-.002-1.5z"
                fill="currentColor"></path>
            </svg>