<svg width="24" height="24" fill="none" xmlns="http://www.w3.org/2000/svg" class="" viewBox="0 0 24 24"><path fill-rule="evenodd" clip-rule="evenodd" d="M4 8a4 4 0 014-4h8a4 4 0 014 4v2.927c0 .69-.69 1.176-1.376 1.105a6.002 6.002 0 00-6.541 4.972c-.092.545-.53.996-1.083.996H8a4 4 0 01-4-4V8zm6.91 5.348l3.186-2.101a.892.892 0 000-1.494l-3.185-2.1c-.603-.398-1.411.03-1.411.746v4.202c0 .717.808 1.144 1.41.747z" fill="url(#watch_later_svg__paint0_linear_4992_29017)"></path><path fill-rule="evenodd" clip-rule="evenodd" d="M17.5 21.5a4 4 0 100-8 4 4 0 000 8zm.25-6a.75.75 0 00-1.5 0V18c0 .414.336.75.75.75h2.381a.75.75 0 100-1.5H17.75V15.5z" fill="url(#watch_later_svg__paint1_linear_4992_29017)"></path><defs><linearGradient id="watch_later_svg__paint0_linear_4992_29017" x1="0.267" y1="0.769" x2="17.428" y2="19.032" gradientUnits="userSpaceOnUse"><stop stop-color="#DEA8FF"></stop><stop offset="0.797" stop-color="#A349E9"></stop></linearGradient><linearGradient id="watch_later_svg__paint1_linear_4992_29017" x1="8.755" y1="9" x2="20.765" y2="21.01" gradientUnits="userSpaceOnUse"><stop stop-color="#DEA8FF"></stop><stop offset="0.797" stop-color="#A349E9"></stop></linearGradient></defs></svg>