<svg viewBox="0 0 32 32" fill="none" xmlns="http://www.w3.org/2000/svg" width="1em" height="1em" focusable="false" style="font-size:32px"><path fill-rule="evenodd" clip-rule="evenodd" d="M9.25 13.75C11.4591 13.75 13.25 11.9591 13.25 9.75V9.25V8.25H11.25V9.25V9.75C11.25 10.8546 10.3546 11.75 9.25 11.75H8.75H7.75V13.75H8.75H9.25ZM22.75 13.75C20.5409 13.75 18.75 11.9591 18.75 9.75V9.25V8.25H20.75V9.25V9.75C20.75 10.8546 21.6454 11.75 22.75 11.75H23.25H24.25V13.75H23.25H22.75ZM13.25 22.25C13.25 20.0409 11.4591 18.25 9.25 18.25H8.75H7.75V20.25H8.75H9.25C10.3546 20.25 11.25 21.1454 11.25 22.25V22.75V23.75H13.25V22.75V22.25ZM22.75 18.25C20.5409 18.25 18.75 20.0409 18.75 22.25V22.75V23.75H20.75V22.75V22.25C20.75 21.1454 21.6454 20.25 22.75 20.25H23.25H24.25V18.25H23.25H22.75Z" fill="#fff"></path></svg>