<svg viewBox="0 0 32 32" fill="none" xmlns="http://www.w3.org/2000/svg" width="1em" height="1em" focusable="false" style="font-size:32px"><path fill-rule="evenodd" clip-rule="evenodd" d="M11.75 8.25C9.54086 8.25 7.75 10.0409 7.75 12.25V12.75V13.75H9.75V12.75V12.25C9.75 11.1454 10.6454 10.25 11.75 10.25H12.25H13.25V8.25H12.25H11.75ZM20.25 8.25C22.4591 8.25 24.25 10.0409 24.25 12.25V12.75V13.75H22.25V12.75V12.25C22.25 11.1454 21.3546 10.25 20.25 10.25H19.75H18.75V8.25H19.75H20.25ZM7.75 19.75C7.75 21.9591 9.54086 23.75 11.75 23.75H12.25H13.25V21.75H12.25H11.75C10.6454 21.75 9.75 20.8546 9.75 19.75V19.25V18.25H7.75V19.25V19.75ZM20.25 23.75C22.4591 23.75 24.25 21.9591 24.25 19.75V19.25V18.25H22.25V19.25V19.75C22.25 20.8546 21.3546 21.75 20.25 21.75H19.75H18.75V23.75H19.75H20.25Z" fill="#fff"></path></svg>