<svg viewBox="0 0 32 32" fill="none" xmlns="http://www.w3.org/2000/svg" width="32" height="32" focusable="false"><path fill-rule="evenodd" clip-rule="evenodd" d="M19.0904 10.1066C18.2026 10.0016 17.0393 10 15.3711 10H14.8711C13.4458 10 12.4521 10.0012 11.6861 10.0791C10.9369 10.1554 10.5171 10.2966 10.2044 10.5056C9.87682 10.7245 9.59556 11.0057 9.37669 11.3333C9.16771 11.646 9.02645 12.0658 8.95023 12.8151C8.87231 13.581 8.8711 14.5747 8.8711 16C8.8711 17.4253 8.87231 18.419 8.95023 19.185C9.02645 19.9342 9.16771 20.354 9.37669 20.6667C9.59556 20.9943 9.87682 21.2755 10.2044 21.4944C10.5171 21.7034 10.9369 21.8447 11.6861 21.9209C12.4521 21.9988 13.4458 22 14.8711 22H15.1385C15.1632 22.8366 15.2329 23.3933 15.4295 23.8679C15.4479 23.9124 15.4671 23.9564 15.487 24H14.8711H14.8171H14.8171C13.4584 24 12.3628 24 11.4837 23.9106C10.5763 23.8183 9.78939 23.6225 9.09325 23.1574C8.54729 22.7926 8.07854 22.3238 7.71375 21.7779C7.2486 21.0817 7.0528 20.2948 6.9605 19.3874C6.87107 18.5083 6.87108 17.4127 6.87109 16.054V16.054V16.054V16.054V16.0539V16V15.9461V15.946V15.946V15.946V15.946C6.87108 14.5874 6.87107 13.4917 6.9605 12.6126C7.0528 11.7052 7.2486 10.9183 7.71375 10.2222C8.07854 9.6762 8.54729 9.20745 9.09325 8.84266C9.78939 8.37751 10.5763 8.18171 11.4837 8.0894C12.3628 7.99998 13.4584 7.99999 14.8171 8H14.8171H14.8171H14.8171H14.8172H14.8711H15.3711H15.4345H15.4345H15.4346H15.4346H15.4346C17.0244 7.99998 18.3062 7.99997 19.3252 8.12041C20.3798 8.24507 21.2822 8.51052 22.0431 9.13495C22.2962 9.34272 22.5284 9.57487 22.7361 9.82804C23.3606 10.5889 23.626 11.4913 23.7507 12.5459C23.8133 13.0752 23.8433 13.6754 23.8578 14.3529C23.3841 14.3372 22.8192 14.3372 22.125 14.3372H21.8569C21.8433 13.7315 21.8167 13.222 21.7645 12.7807C21.6622 11.9149 21.4737 11.4423 21.1901 11.0968C21.0655 10.9449 20.9262 10.8056 20.7743 10.681C20.4288 10.3974 19.9562 10.2089 19.0904 10.1066ZM20.125 16.3372L20.0706 16.3372H20.0706H20.0706H20.0706C20.0266 16.3371 19.9827 16.3371 19.9391 16.3372L19.0287 15.4268L18.3216 14.7197L16.9074 16.1339L17.6145 16.841L17.7036 16.9301L17.702 16.9318L17.9323 17.1622L19.1516 18.3814L19.152 18.3785L23.1107 22.3372H23.1073L24.9218 24.1516C24.9226 24.1513 24.9234 24.151 24.9242 24.1507L25.3927 24.6192L26.0998 25.3263L27.514 23.9121L26.8069 23.205L26.0893 22.4874C26.1252 22.1638 26.1251 21.7828 26.125 21.3916L26.125 21.3372V19.3372L26.125 19.2828C26.1251 18.8587 26.1252 18.4466 26.0795 18.1066C26.028 17.7234 25.9024 17.2862 25.5392 16.9229C25.176 16.5597 24.7387 16.4342 24.3555 16.3827C24.0156 16.337 23.6035 16.3371 23.1794 16.3372L23.125 16.3372H20.125ZM24.125 20.5231V19.3372C24.125 18.8375 24.1229 18.5633 24.0973 18.3731L24.0963 18.3659L24.089 18.3649C23.8988 18.3393 23.6247 18.3372 23.125 18.3372H21.9391L24.125 20.5231ZM17.125 19.2827L17.125 19.1833L19.125 21.1833V21.3372C19.125 21.8368 19.1271 22.111 19.1527 22.3012L19.1537 22.3085L19.161 22.3095C19.3512 22.335 19.6253 22.3372 20.125 22.3372H20.2789L22.2789 24.3372H20.125L20.0706 24.3372H20.0705C19.6465 24.3372 19.2344 24.3373 18.8945 24.2916C18.5113 24.2401 18.074 24.1146 17.7108 23.7514C17.3476 23.3882 17.222 22.9509 17.1705 22.5677C17.1248 22.2278 17.1249 21.8157 17.125 21.3916V21.3916V21.3916V21.3916L17.125 21.3372V19.3372L17.125 19.2828V19.2827V19.2827Z" fill="#fff"></path></svg>