<svg viewBox="0 0 32 32" fill="none" xmlns="http://www.w3.org/2000/svg" width="32" height="32" focusable="false" class="pagefull"><path fill-rule="evenodd" clip-rule="evenodd" d="M14.75 8H14.6961H14.696C13.3374 7.99999 12.2417 7.99997 11.3626 8.0894C10.4552 8.18171 9.66829 8.3775 8.97215 8.84265C8.4262 9.20745 7.95745 9.6762 7.59265 10.2222C7.12751 10.9183 6.93171 11.7052 6.8394 12.6126C6.74997 13.4917 6.74999 14.5874 6.75 15.946V15.9461V16V16.0539V16.054C6.74999 17.4126 6.74997 18.5083 6.8394 19.3874C6.93171 20.2948 7.12751 21.0817 7.59265 21.7779C7.95745 22.3238 8.4262 22.7926 8.97215 23.1573C9.66829 23.6225 10.4552 23.8183 11.3626 23.9106C12.2417 24 13.3374 24 14.696 24H14.696H14.75H17.25H17.304H17.304C18.6626 24 19.7583 24 20.6374 23.9106C21.5448 23.8183 22.3317 23.6225 23.0279 23.1573C23.5738 22.7926 24.0426 22.3238 24.4073 21.7779C24.8725 21.0817 25.0683 20.2948 25.1606 19.3874C25.25 18.5083 25.25 17.4126 25.25 16.054V16.054V16V15.946V15.946C25.25 14.5874 25.25 13.4917 25.1606 12.6126C25.0683 11.7052 24.8725 10.9183 24.4073 10.2222C24.0426 9.6762 23.5738 9.20745 23.0279 8.84265C22.3317 8.3775 21.5448 8.18171 20.6374 8.0894C19.7583 7.99997 18.6626 7.99999 17.304 8H17.3039H17.25H14.75ZM10.0833 10.5056C10.396 10.2966 10.8158 10.1554 11.5651 10.0791C12.331 10.0012 13.3247 10 14.75 10H17.25C18.6753 10 19.669 10.0012 20.4349 10.0791C21.1842 10.1554 21.604 10.2966 21.9167 10.5056C22.2443 10.7245 22.5255 11.0057 22.7444 11.3333C22.9534 11.646 23.0946 12.0658 23.1709 12.8151C23.2488 13.581 23.25 14.5747 23.25 16C23.25 17.4253 23.2488 18.419 23.1709 19.1849C23.0946 19.9342 22.9534 20.354 22.7444 20.6667C22.5255 20.9943 22.2443 21.2755 21.9167 21.4944C21.604 21.7034 21.1842 21.8446 20.4349 21.9209C19.669 21.9988 18.6753 22 17.25 22H14.75C13.3247 22 12.331 21.9988 11.5651 21.9209C10.8158 21.8446 10.396 21.7034 10.0833 21.4944C9.75572 21.2755 9.47447 20.9943 9.25559 20.6667C9.04662 20.354 8.90535 19.9342 8.82913 19.1849C8.75121 18.419 8.75 17.4253 8.75 16C8.75 14.5747 8.75121 13.581 8.82913 12.8151C8.90535 12.0658 9.04662 11.646 9.25559 11.3333C9.47447 11.0057 9.75572 10.7245 10.0833 10.5056ZM10.75 14C10.75 12.8954 11.6454 12 12.75 12H13.95H14.95V14H13.95H12.75V15.2V16.2H10.75V15.2V14ZM21.25 18C21.25 19.1046 20.3546 20 19.25 20H18.05H17.05V18H18.05H19.25V16.8V15.8H21.25V16.8V18Z" fill="#fff"></path></svg>