<svg viewBox="0 0 32 32" fill="none" xmlns="http://www.w3.org/2000/svg" width="1em" height="1em" focusable="false" style="font-size:32px"><path fill-rule="evenodd" clip-rule="evenodd" d="M19.0367 10.4467C19.0367 7.98933 16.2441 6.57427 14.2625 8.02748L10.4733 10.8064C10.3018 10.9322 10.0946 11 9.88192 11H9.03668C7.37983 11 6.03668 12.3431 6.03668 14V18C6.03668 19.6568 7.37983 21 9.03668 21H9.88194C10.0946 21 10.3018 21.0678 10.4733 21.1936L14.2626 23.9724C16.2442 25.4256 19.0367 24.0105 19.0367 21.5532V10.4467ZM15.4453 9.64027C16.1058 9.15586 17.0367 9.62755 17.0367 10.4467V21.5532C17.0367 22.3723 16.1058 22.844 15.4453 22.3596L11.656 19.5808C11.1415 19.2034 10.52 19 9.88194 19H9.03668C8.4844 19 8.03668 18.5523 8.03668 18V14C8.03668 13.4477 8.4844 13 9.03668 13H9.88192C10.52 13 11.1415 12.7965 11.6561 12.4192L15.4453 9.64027ZM23.6663 11.6777L22.844 11.1086L21.7059 12.7532L22.5282 13.3223C23.4087 13.9317 23.9633 14.9105 23.9633 16C23.9633 17.0895 23.4087 18.0683 22.5282 18.6777L21.7059 19.2468L22.844 20.8914L23.6663 20.3223C25.0461 19.3674 25.9633 17.7937 25.9633 16C25.9633 14.2063 25.0461 12.6326 23.6663 11.6777Z" fill="#fff"></path></svg>