<svg viewBox="0 0 32 32" fill="none" xmlns="http://www.w3.org/2000/svg" width="1em" height="1em" focusable="false" style="font-size:32px"><path fill-rule="evenodd" clip-rule="evenodd" d="M11.4525 8.11043L10.7454 7.40332L9.33115 8.81753L10.0383 9.52464L23.4733 22.9597L24.1804 23.6668L25.5946 22.2526L24.8875 21.5455L22.4054 19.0634V10.6468C22.4054 8.31652 19.8647 6.87595 17.8651 8.0724L13.8292 10.4872L11.4525 8.11043ZM15.2874 11.9454L20.4054 17.0634V10.6468C20.4054 9.87002 19.5585 9.38983 18.8919 9.78865L15.2874 11.9454ZM20.0501 22.357L21.4669 23.7738C20.5453 24.6377 19.1017 24.9064 17.8651 24.1664L11.6291 20.4352H9.4054C7.74854 20.4352 6.4054 19.0921 6.4054 17.4352V14.8036C6.4054 13.1468 7.74854 11.8036 9.4054 11.8036H9.49674L11.4967 13.8036H9.4054C8.85311 13.8036 8.4054 14.2513 8.4054 14.8036V17.4352C8.4054 17.9875 8.85311 18.4352 9.4054 18.4352H11.6291C11.9907 18.4352 12.3456 18.5333 12.656 18.719L18.8919 22.4502C19.2856 22.6857 19.7422 22.6147 20.0501 22.357Z" fill="#fff"></path></svg>