<svg viewBox="0 0 32 32" fill="none" xmlns="http://www.w3.org/2000/svg" width="1em" height="1em" focusable="false" style="font-size:32px"><path fill-rule="evenodd" clip-rule="evenodd" d="M13.6523 8.02754C15.6339 6.57433 18.4265 7.98939 18.4265 10.4467V21.5532C18.4265 24.0105 15.6339 25.4256 13.6524 23.9725L9.86308 21.1936C9.69156 21.0679 9.4844 21.0001 9.27171 21.0001H8.42645C6.7696 21.0001 5.42645 19.6569 5.42645 18.0001V14.0001C5.42645 12.3432 6.7696 11.0001 8.42645 11.0001H9.27169C9.48439 11.0001 9.69155 10.9322 9.86307 10.8064L13.6523 8.02754ZM16.4265 10.4467C16.4265 9.62761 15.4956 9.15592 14.8351 9.64033L11.0458 12.4192C10.5313 12.7966 9.90979 13.0001 9.27169 13.0001H8.42645C7.87417 13.0001 7.42645 13.4478 7.42645 14.0001V18.0001C7.42645 18.5523 7.87417 19.0001 8.42645 19.0001H9.27171C9.90979 19.0001 10.5313 19.2035 11.0458 19.5808L14.8351 22.3596C15.4956 22.844 16.4265 22.3723 16.4265 21.5532V10.4467ZM21.2263 11.8253L21.8066 12.6397C22.4855 13.5924 22.8857 14.7511 22.8857 16.0001C22.8857 17.249 22.4855 18.4078 21.8066 19.3605L21.2263 20.1749L19.5975 19.0143L20.1778 18.1999C20.6263 17.5704 20.8857 16.8142 20.8857 16.0001C20.8857 15.1859 20.6263 14.4297 20.1778 13.8003L19.5975 12.9859L21.2263 11.8253ZM24.8066 10.4994L24.2263 9.68498L22.5975 10.8456L23.1778 11.66C24.0603 12.8986 24.5736 14.392 24.5736 16.0004C24.5736 17.6089 24.0603 19.1023 23.1778 20.3408L22.5975 21.1552L24.2263 22.3158L24.8066 21.5014C25.9195 19.9396 26.5736 18.0436 26.5736 16.0004C26.5736 13.9572 25.9195 12.0612 24.8066 10.4994Z" fill="#fff"></path></svg>