<svg width="16" height="16" viewBox="0 0 16 16" fill="none"><path d="M8 3a5.003 5.003 0 00-4.722 3.352 1 1 0 01-1.889-.658A7.003 7.003 0 0113.753 4.01l.29-.965a1 1 0 011.915.575l-1 3.333a1 1 0 01-1.154.693l-3.334-.666a1 1 0 01.393-1.962l1.338.268A4.997 4.997 0 008 3zm-4.201 7.713l1.338.268a1 1 0 00.392-1.962l-3.333-.666a1 1 0 00-1.154.693l-1 3.333a1 1 0 101.916.575l.29-.965a7.002 7.002 0 0012.354-1.656 1 1 0 10-1.886-.666 5.003 5.003 0 01-8.917 1.046z" fill="#1C1F23" fill-opacity="0.6"></path></svg>