<?xml version="1.0" standalone="no"?><!DOCTYPE svg PUBLIC "-//W3C//DTD SVG 1.1//EN" "http://www.w3.org/Graphics/SVG/1.1/DTD/svg11.dtd"><svg t="1705387752187" class="icon" viewBox="0 0 1024 1024" version="1.1" xmlns="http://www.w3.org/2000/svg" p-id="6318" xmlns:xlink="http://www.w3.org/1999/xlink" width="24" height="24"><path d="M395.459 390.193v-38.668c-13.653-1.902-27.355-2.926-41.155-2.926-168.424 0-305.445 134.68-305.445 300.032 0 101.425 51.64 191.244 130.439 245.614A295.887 295.887 0 0 1 97.23 689.98c0-163.011 133.12-295.985 298.277-299.74" fill="#3FBABE" p-id="6319"></path><path d="M402.725 827.002c75.142 0 136.435-58.758 139.264-131.901l0.243-653.166h121.466a222.744 222.744 0 0 1-3.9-41.35H493.86l-0.293 653.166c-2.78 73.143-64.073 131.852-139.215 131.852-22.528 0-44.764-5.364-64.756-15.701a140.044 140.044 0 0 0 113.128 57.051m487.96-563.297v-36.28a232.497 232.497 0 0 1-125.757-36.717 231.863 231.863 0 0 0 125.806 72.997" fill="#00F7EF" p-id="6320"></path><path d="M764.928 190.61a223.427 223.427 0 0 1-56.759-148.675H663.7A227.035 227.035 0 0 0 764.976 190.61m-410.624 321c-76.947 0-139.508 61.44-139.508 137.02 0 52.615 30.379 98.305 74.752 121.272a134.437 134.437 0 0 1-26.429-79.97c0-75.483 62.562-137.02 139.557-137.02 14.384 0 28.135 2.34 41.203 6.338V392.972a310.32 310.32 0 0 0-41.203-2.926c-2.439 0-4.877 0.098-7.217 0.196v127.756a139.654 139.654 0 0 0-41.204-6.34" fill="#FF004F" p-id="6321"></path><path d="M890.636 263.558V390.34a399.653 399.653 0 0 1-230.839-72.997v331.191c0 165.45-137.02 299.984-305.493 299.984a307.541 307.541 0 0 1-175.055-54.37 307.2 307.2 0 0 0 223.427 95.768c168.423 0 305.444-134.582 305.444-300.032V358.79a399.604 399.604 0 0 0 230.888 72.85V268.63c-16.579 0-32.768-1.805-48.372-5.072" fill="#FF004F" p-id="6322"></path><path d="M659.749 648.582V317.44a399.653 399.653 0 0 0 230.887 72.899V263.607a231.863 231.863 0 0 1-125.708-72.948 227.035 227.035 0 0 1-101.23-148.724H542.232l-0.243 653.166c-2.829 73.143-64.122 131.9-139.264 131.9a140.044 140.044 0 0 1-113.128-57.1 136.777 136.777 0 0 1-74.752-121.368c0-75.483 62.561-137.02 139.459-137.02 14.385 0 28.136 2.389 41.204 6.338V390.095C230.35 393.996 97.23 526.97 97.23 689.981a295.887 295.887 0 0 0 82.067 204.312 307.59 307.59 0 0 0 175.055 54.37c168.423 0 305.444-134.583 305.444-299.983" fill="#231916" p-id="6323"></path></svg>